<?xml version="1.0" encoding="UTF-8"?>
<svg version="1.1" xmlns="http://www.w3.org/2000/svg" width="369" height="369">
<path d="M0 0 C6.90870392 5.80051587 12.90778898 11.8841377 18.4375 19 C18.85008057 19.53012695 19.26266113 20.06025391 19.68774414 20.60644531 C27.1875 30.48840493 27.1875 30.48840493 27.1875 35.4375 C27.8475 35.4375 28.5075 35.4375 29.1875 35.4375 C29.1875 36.0975 29.1875 36.7575 29.1875 37.4375 C30.06784912 37.2108667 30.94819824 36.9842334 31.85522461 36.75073242 C67.96026944 27.49139459 67.96026944 27.49139459 78.1875 26.4375 C79.1875 27.4375 79.1875 27.4375 79.46327209 29.78001404 C79.11690027 33.11783635 78.29659093 33.81223539 75.77514648 35.95727539 C75.03136749 36.60833252 74.2875885 37.25938965 73.52127075 37.93017578 C72.70858734 38.62481934 71.89590393 39.31946289 71.05859375 40.03515625 C51.13758495 55.86687689 51.13758495 55.86687689 40.0234375 77.40625 C40.06117269 83.23830207 41.15918457 88.78834218 42.56152344 94.43505859 C43.5150269 99.00845391 43.19714535 103.20780816 42.625 107.8125 C42.49073608 108.99247559 42.49073608 108.99247559 42.35375977 110.19628906 C38.48349101 139.71126871 24.46854717 169.98035274 6.984375 193.9609375 C4.89371625 196.84241065 2.92520241 199.79664074 0.9375 202.75 C-3.83516363 209.72829096 -9.25144337 216.08079752 -14.8125 222.4375 C-15.78896484 223.56478516 -15.78896484 223.56478516 -16.78515625 224.71484375 C-17.89599403 225.99268676 -19.0115954 227.26641059 -20.1328125 228.53515625 C-21.36544831 229.93118797 -22.58798675 231.33615229 -23.8046875 232.74609375 C-27.57733119 237.0810749 -31.3304034 240.85182272 -35.8125 244.4375 C-36.988125 245.6440625 -36.988125 245.6440625 -38.1875 246.875 C-49.87557059 258.28478319 -63.01769497 263.33538961 -79.1875 263.75 C-97.01079455 263.39029678 -111.100173 256.80925525 -123.5 244.1875 C-125.1386105 242.47256617 -126.75842328 240.74341858 -128.36401367 238.99755859 C-130.45170289 236.74906136 -132.63960061 234.60334452 -134.8125 232.4375 C-140.70557549 226.26563301 -146.04637832 219.94756215 -150.95703125 212.96875 C-152.59399243 210.73559032 -154.2937862 208.76289858 -156.1875 206.75 C-161.08580442 201.28650661 -164.670543 194.91651552 -168.45361328 188.66113281 C-169.82853248 186.41126504 -171.23573594 184.18475543 -172.65234375 181.9609375 C-178.28321106 173.06112447 -183.06293823 164.20090722 -186.99316406 154.43066406 C-187.82789006 152.40006126 -188.71511342 150.39994445 -189.6171875 148.3984375 C-201.90619308 120.67764275 -205.08425405 88.75772913 -196.8125 59.4375 C-196.47347656 58.22835937 -196.13445312 57.01921875 -195.78515625 55.7734375 C-191.21360519 41.61952498 -183.84834053 27.45340308 -173.8125 16.4375 C-173.07 15.58929688 -172.3275 14.74109375 -171.5625 13.8671875 C-158.93965025 -0.41880799 -158.93965025 -0.41880799 -151.8125 -4.5625 C-151.1525 -4.5625 -150.4925 -4.5625 -149.8125 -4.5625 C-149.8125 -5.2225 -149.8125 -5.8825 -149.8125 -6.5625 C-105.3237057 -40.58804106 -41.94163968 -33.47265474 0 0 Z M-137.125 47.1875 C-149.27866352 63.28289223 -155.64904925 83.27468753 -153.14453125 103.33886719 C-149.10964125 128.84174546 -135.01728498 153.06359243 -119.8125 173.4375 C-119.16925781 174.3553125 -118.52601563 175.273125 -117.86328125 176.21875 C-112.5005568 183.86372406 -106.42479883 190.81269326 -100.24707031 197.79882812 C-98.5014006 199.79286064 -96.81837284 201.83653222 -95.125 203.875 C-88.13527901 211.85383982 -88.13527901 211.85383982 -78.78125 215.875 C-75.22217736 215.35050508 -73.95744972 214.40148872 -71.375 211.9375 C-70.60542969 211.20660156 -69.83585937 210.47570312 -69.04296875 209.72265625 C-66.40514517 207.02015749 -63.91170489 204.23313319 -61.4765625 201.34765625 C-59.91616192 199.5564922 -58.28738078 197.94337069 -56.5625 196.3125 C-51.05268152 190.86390172 -46.48460023 184.59787218 -41.8125 178.4375 C-41.29349121 177.76283691 -40.77448242 177.08817383 -40.23974609 176.39306641 C-31.0723053 164.42764338 -23.59516312 151.89138012 -16.8125 138.4375 C-16.44366699 137.71320801 -16.07483398 136.98891602 -15.69482422 136.24267578 C-9.72186884 124.31118549 -4.4906053 109.91109258 -4.8125 96.4375 C-6.1325 95.7775 -7.4525 95.1175 -8.8125 94.4375 C-9.26987549 94.76435791 -9.72725098 95.09121582 -10.19848633 95.42797852 C-34.23824257 112.57941419 -34.23824257 112.57941419 -39.8125 114.4375 C-39.95945312 113.84066406 -40.10640625 113.24382812 -40.2578125 112.62890625 C-40.73854772 110.76951083 -41.26787875 108.92236394 -41.83081055 107.08618164 C-42.56006815 104.37572282 -43.00453017 102.052042 -43.3347168 99.30419922 C-44.16361607 94.38203021 -45.31185057 90.13331503 -48.8125 86.4375 C-57.18753027 82.05968877 -67.27366826 81.33668928 -76.5 80 C-80.35452411 79.36458608 -84.20505648 78.70803667 -88.05586243 78.05052185 C-90.44791121 77.65060647 -92.84297201 77.26823215 -95.2408905 76.90516663 C-96.32243912 76.73996017 -97.40398773 76.57475372 -98.51831055 76.40454102 C-99.94677559 76.19499535 -99.94677559 76.19499535 -101.40409851 75.98121643 C-103.8125 75.4375 -103.8125 75.4375 -106.8125 73.4375 C-106.4825 71.7875 -106.1525 70.1375 -105.8125 68.4375 C-104.71075439 68.19104736 -103.60900879 67.94459473 -102.47387695 67.69067383 C-77.16002411 62.05400913 -77.16002411 62.05400913 -51.91455078 56.12158203 C-41.92093393 53.71473129 -31.86471323 51.58375725 -21.8125 49.4375 C-21.8125 45.27458828 -24.02309311 43.6063045 -26.8125 40.8125 C-40.88804067 26.8850116 -59.29576343 20.07347898 -79 19.875 C-101.730643 20.25837148 -122.27303269 29.86493775 -137.125 47.1875 Z " fill="#FA5352" transform="translate(258.8125,44.5625)"/>
<path d="M0 0 C0.99 0.33 1.98 0.66 3 1 C5.90250028 19.08665463 5.62523954 37.21202342 1 55 C0.81872559 55.72268066 0.63745117 56.44536133 0.45068359 57.18994141 C-5.90998097 82.08471632 -17.88634298 105.30459465 -33 126 C-33.66 126.99 -34.32 127.98 -35 129 C-35.99 129 -36.98 129 -38 129 C-38.061875 129.598125 -38.12375 130.19625 -38.1875 130.8125 C-39 133 -39 133 -41.21875 134.25 C-44.61421116 136.38646994 -46.83582987 139.09806828 -49.3125 142.1875 C-56.08726471 150.38476063 -62.71154166 157.60567196 -72 163 C-72.70898438 163.41507813 -73.41796875 163.83015625 -74.1484375 164.2578125 C-81.06161099 167.82670712 -88.14359942 168.19990014 -95.671875 166.33984375 C-104.19487074 163.28268223 -110.84528428 157.50641377 -117 151 C-117.763125 150.278125 -118.52625 149.55625 -119.3125 148.8125 C-121 147 -121 147 -121 145 C-121.66 145 -122.32 145 -123 145 C-122.505 144.01 -122.505 144.01 -122 143 C-121.34 143.33 -120.68 143.66 -120 144 C-116.81318539 144.60701231 -114.81233131 144.54045572 -112.07421875 142.71875 C-107.88455854 139.13923448 -104.25273627 135.14565006 -100.69921875 130.9453125 C-99.12545649 129.14362605 -97.48702345 127.51712668 -95.75 125.875 C-90.24018152 120.42640172 -85.67210023 114.16037218 -81 108 C-80.22148682 106.98800537 -80.22148682 106.98800537 -79.42724609 105.95556641 C-70.2598053 93.99014338 -62.78266312 81.45388012 -56 68 C-55.63116699 67.27570801 -55.26233398 66.55141602 -54.88232422 65.80517578 C-48.81921669 53.69359884 -43.25878851 38.70118216 -44 25 C-39.24537987 24.92452984 -35.02928097 24.97620273 -30.375 25.9375 C-27.3942383 26.34467936 -26.41768377 26.30391467 -23.94921875 24.5078125 C-22.04982856 22.60040706 -22.04982856 22.60040706 -20.41015625 20.56640625 C-19.94480469 20.04949219 -19.47945313 19.53257812 -19 19 C-18.34 19 -17.68 19 -17 19 C-16.62875 18.13375 -16.62875 18.13375 -16.25 17.25 C-14.81700012 14.67060021 -13.21575324 12.93878408 -11 11 C-10.34 11 -9.68 11 -9 11 C-8.773125 10.4225 -8.54625 9.845 -8.3125 9.25 C-6.66800353 6.43086319 -4.5644533 4.98745131 -2 3 C-1.34 2.01 -0.68 1.02 0 0 Z " fill="#FB5353" transform="translate(297,115)"/>
<path d="M0 0 C2.1476831 7.44871043 0.97662253 15.43117541 0 23 C0.66 23 1.32 23 2 23 C2.12375 23.89976562 2.2475 24.79953125 2.375 25.7265625 C5.99782794 48.32395179 15.37977694 71.95699914 29.50878906 90.06982422 C31.04135258 92.05352546 32.47410252 94.08318991 33.89453125 96.1484375 C39.48888799 104.26115419 45.20266915 111.83665903 52 119 C53.27849168 120.43069307 54.54978259 121.86786567 55.8125 123.3125 C56.37582031 123.95574219 56.93914062 124.59898437 57.51953125 125.26171875 C58.72584213 126.6780996 59.87247933 128.14512912 61 129.625 C63.28310749 132.33619015 65.81777528 134.40037154 68.609375 136.5703125 C70 138 70 138 70 141 C70.66 141 71.32 141 72 141 C72 141.66 72 142.32 72 143 C72.99 143.33 73.98 143.66 75 144 C76.54296875 145.63671875 76.54296875 145.63671875 78.1875 147.6875 C84.81974437 155.44361841 92.64545193 160.84400057 102.8828125 162.453125 C114.83809717 163.13985153 124.33859135 156.65199637 133 149 C138.61385313 143.88660664 143.3123771 138.24982347 147.921875 132.22265625 C150.0328752 129.96483837 150.98303548 129.31936336 154 129 C154.33 127.68 154.66 126.36 155 125 C155.66 125 156.32 125 157 125 C155.54207806 129.5329642 152.97835311 132.67826732 149.875 136.1875 C148.87377032 137.34138207 147.87377938 138.4963401 146.875 139.65234375 C146.38386719 140.21937012 145.89273438 140.78639648 145.38671875 141.37060547 C143.48028234 143.61066825 141.67843324 145.92662532 139.875 148.25 C135.94293227 153.21554755 131.55583968 157.6099859 127 162 C124.54382846 164.40158995 122.24264854 166.68765995 120.13671875 169.3984375 C111.99873241 179.306845 98.6901227 187.09904766 85.90234375 188.7890625 C67.67253649 190.11397447 51.20785334 187.44722023 37.00585938 175.29345703 C33.32136204 171.86885819 29.85161855 168.2607174 26.44775391 164.55908203 C24.36029058 162.31109876 22.17076974 160.16726284 20 158 C4.97946601 142.08762181 4.97946601 142.08762181 5.0234375 137.6171875 C4.99546185 134.49323953 4.1548344 132.77581737 2.75 130 C0.25873707 124.79931269 -1.45093013 119.5885011 -3.0078125 114.04296875 C-3.90919558 110.98079084 -3.90919558 110.98079084 -5.453125 108.26953125 C-7.55813867 103.82029781 -8.54368548 99.28581795 -9.625 94.5 C-9.8415625 93.57574219 -10.058125 92.65148437 -10.28125 91.69921875 C-17.28532253 61.47794282 -14.09146556 27.7464698 0 0 Z " fill="#F9F958" transform="translate(104,119)"/>
<path d="M0 0 C1.43714233 1.20516267 2.85110646 2.43814336 4.25 3.6875 C4.78173828 4.15124023 5.31347656 4.61498047 5.86132812 5.09277344 C7.66962287 6.67379074 9.4621948 8.27086347 11.25 9.875 C12.1157666 10.64227417 12.1157666 10.64227417 12.99902344 11.42504883 C15.89552839 14.08452748 17.53879177 15.8197884 18.25 19.6875 C17.28578125 18.81222656 16.3215625 17.93695313 15.328125 17.03515625 C-1.60659104 2.56760923 -23.36993196 -4.12985236 -45.40576172 -2.54736328 C-64.5701384 -0.62733304 -82.47027038 8.76495268 -95 23.375 C-99.52706708 29.34924426 -102.70158576 35.88300393 -105.75 42.6875 C-106.1521875 43.55761719 -106.554375 44.42773438 -106.96875 45.32421875 C-110.68932336 54.3015113 -111.52927923 64.11721791 -112.75 73.6875 C-113.08 73.6875 -113.41 73.6875 -113.75 73.6875 C-113.75 66.4275 -113.75 59.1675 -113.75 51.6875 C-115.04468916 55.20724796 -116.33583942 58.72822741 -117.625 62.25 C-117.98980469 63.24064453 -118.35460937 64.23128906 -118.73046875 65.25195312 C-131.7992317 101.01284084 -126.61494561 138.11308255 -113.14453125 172.828125 C-112.6171875 174.19791667 -112.08984375 175.56770833 -111.5625 176.9375 C-111.15354492 177.97777344 -111.15354492 177.97777344 -110.73632812 179.0390625 C-109.40953522 182.51067099 -108.75 184.91914316 -108.75 188.6875 C-115.06597772 183.87339359 -118.91952175 178.43830274 -123.125 171.75 C-123.77984375 170.72382568 -124.4346875 169.69765137 -125.109375 168.64038086 C-127.00180175 165.66359545 -128.87711855 162.67660629 -130.75 159.6875 C-131.65878425 158.26037214 -132.56762888 156.83328273 -133.4765625 155.40625 C-138.43058557 147.51373068 -142.35581401 139.38847889 -145.88964844 130.77294922 C-146.7852809 128.60198087 -147.70685486 126.44334982 -148.6328125 124.28515625 C-157.01823777 104.58668249 -157.01823777 104.58668249 -156.75 95.6875 C-156.42 95.6875 -156.09 95.6875 -155.75 95.6875 C-155.69527912 94.29211746 -155.65688462 92.89609103 -155.625 91.5 C-155.60179687 90.72269531 -155.57859375 89.94539063 -155.5546875 89.14453125 C-155.61518081 86.65620079 -155.61518081 86.65620079 -156.74560547 84.45214844 C-157.94357716 81.15466874 -158.00882781 78.50126013 -158.015625 74.99609375 C-158.01949219 73.08473633 -158.01949219 73.08473633 -158.0234375 71.13476562 C-158.01924805 70.47645752 -158.01505859 69.81814941 -158.01074219 69.13989258 C-158.00001312 67.1274616 -158.01067124 65.11591947 -158.0234375 63.10351562 C-158.02085937 61.83056641 -158.01828125 60.55761719 -158.015625 59.24609375 C-158.01336914 58.08392334 -158.01111328 56.92175293 -158.00878906 55.72436523 C-157.75631382 52.76159208 -157.20781645 51.21736364 -155.75 48.6875 C-155.36003316 46.71870908 -155.03068039 44.73731737 -154.75 42.75 C-153.81140559 36.12117701 -152.46788132 32.40538132 -147.75 27.6875 C-147.069375 26.32044922 -147.069375 26.32044922 -146.375 24.92578125 C-144.72351049 21.63471201 -142.846879 18.79123215 -140.6875 15.8125 C-139.99527344 14.84570312 -139.30304688 13.87890625 -138.58984375 12.8828125 C-137.98269531 12.15835938 -137.37554687 11.43390625 -136.75 10.6875 C-136.09 10.6875 -135.43 10.6875 -134.75 10.6875 C-134.42 9.6975 -134.09 8.7075 -133.75 7.6875 C-132.41666667 7.02083333 -131.08333333 6.35416667 -129.75 5.6875 C-129.028125 4.965625 -128.30625 4.24375 -127.5625 3.5 C-120.99083521 -3.07166479 -113.90939295 -7.86441059 -105.29296875 -11.2890625 C-103.69876561 -11.93066192 -102.1192248 -12.61152581 -100.56640625 -13.34765625 C-94.28182496 -16.21220543 -88.63435004 -16.84269418 -81.75390625 -17.0390625 C-78.56983816 -17.08811597 -78.56983816 -17.08811597 -75.75 -19.3125 C-49.8108091 -25.47157729 -20.76749149 -15.64254884 0 0 Z " fill="#FAC739" transform="translate(217.75,68.3125)"/>
<path d="M0 0 C0.27681161 2.96721884 0.34381125 4.50759505 -1.39120483 6.99247742 C-2.04247345 7.63264297 -2.69374207 8.27280853 -3.36474609 8.93237305 C-4.46621475 10.03327522 -4.46621475 10.03327522 -5.5899353 11.15641785 C-6.39299103 11.93366714 -7.19604675 12.71091644 -8.0234375 13.51171875 C-9.24820297 14.72587212 -9.24820297 14.72587212 -10.49771118 15.96455383 C-13.11198512 18.55082449 -15.74308368 21.11919713 -18.375 23.6875 C-20.14176279 25.42918512 -21.90740227 27.17201052 -23.671875 28.91601562 C-27.55587183 32.75079839 -31.45053082 36.57436549 -35.35482788 40.38847351 C-36.57672065 41.58537719 -37.79053723 42.79053723 -39 44 C-39.66 44 -40.32 44 -41 44 C-43.53348876 46.33347649 -45.77436063 48.70666882 -47.875 51.4375 C-50.13246913 54.15974219 -52.56254864 56.27056294 -55.26953125 58.52734375 C-58.54788986 61.31727873 -61.47173247 64.28957125 -64.0390625 67.7421875 C-67 70 -67 70 -69.09814453 70.0222168 C-71.66421134 69.59926472 -74.20229451 69.08440503 -76.75 68.5625 C-84.02248107 67.44681377 -88.81712635 67.5712796 -94.99072266 71.7878418 C-97.7777329 73.94202027 -100.49665095 76.15558863 -103.16210938 78.45849609 C-105.76757288 80.64379053 -108.50047094 82.43272574 -111.375 84.25 C-112.20773438 84.79140625 -113.04046875 85.3328125 -113.8984375 85.890625 C-116 87 -116 87 -119 87 C-119.20157715 86.42032471 -119.4031543 85.84064941 -119.61083984 85.2434082 C-120.53103841 82.5993569 -121.45300277 79.9559246 -122.375 77.3125 C-122.69210938 76.40048828 -123.00921875 75.48847656 -123.3359375 74.54882812 C-123.6453125 73.66259766 -123.9546875 72.77636719 -124.2734375 71.86328125 C-124.55622559 71.05157471 -124.83901367 70.23986816 -125.13037109 69.40356445 C-125.74226249 67.71235985 -126.40663547 66.03968438 -127.10791016 64.38354492 C-128 62 -128 62 -128 59 C-128.89696091 58.92584366 -128.89696091 58.92584366 -129.81204224 58.85018921 C-136.19081054 58.27410667 -142.39985188 57.283153 -148.6796875 56.0390625 C-149.65487335 55.84782806 -150.6300592 55.65659363 -151.63479614 55.45956421 C-153.67728046 55.05696297 -155.71925943 54.65179011 -157.76074219 54.24414062 C-160.88528886 53.62295449 -164.01275983 53.01828692 -167.140625 52.4140625 C-169.13301202 52.01923465 -171.12520688 51.62343561 -173.1171875 51.2265625 C-174.04949188 51.0483194 -174.98179626 50.87007629 -175.94235229 50.68643188 C-176.81070709 50.5096994 -177.67906189 50.33296692 -178.57373047 50.15087891 C-179.33410614 50.00067291 -180.09448181 49.85046692 -180.87789917 49.69570923 C-183.35475756 48.88369633 -185.0040478 47.6539566 -187 46 C-186.8125 43.625 -186.8125 43.625 -186 41 C-181.70052525 38.75862242 -176.88000207 38.01323515 -172.16796875 37.046875 C-170.39248553 36.67396289 -168.61701397 36.30099527 -166.84155273 35.92797852 C-165.91720428 35.73551544 -164.99285583 35.54305237 -164.04049683 35.34475708 C-149.16598807 32.24390561 -134.35954001 29.01688771 -119.65234375 25.19140625 C-106.15727831 21.69543497 -106.15727831 21.69543497 -99 22 C-98.67 21.34 -98.34 20.68 -98 20 C-96.515 20.495 -96.515 20.495 -95 21 C-93.03609539 20.80686963 -93.03609539 20.80686963 -90.9453125 20.29296875 C-90.16542969 20.11830078 -89.38554687 19.94363281 -88.58203125 19.76367188 C-87.77121094 19.57353516 -86.96039063 19.38339844 -86.125 19.1875 C-84.92037109 18.91969727 -84.92037109 18.91969727 -83.69140625 18.64648438 C-79.62228015 17.71802644 -75.85250641 16.63148848 -72 15 C-67.54827511 13.75709141 -63.10170556 12.96474699 -58.5 12.5625 C-55.43897426 12.26263298 -52.79150387 11.68493246 -49.8984375 10.6484375 C-44.70261944 8.86297517 -39.44202725 7.43882617 -34.125 6.0625 C-33.13209961 5.80525146 -32.13919922 5.54800293 -31.11621094 5.28295898 C-24.51862926 3.59568271 -17.90540789 2.00534881 -11.25 0.5625 C-10.06301514 0.2986853 -10.06301514 0.2986853 -8.85205078 0.02954102 C-3.36119557 -1.12039852 -3.36119557 -1.12039852 0 0 Z " fill="#FAC738" transform="translate(338,72)"/>
<path d="M0 0 C0 0.99 0 1.98 0 3 C-0.66 3 -1.32 3 -2 3 C-1.86609863 3.68102783 -1.73219727 4.36205566 -1.59423828 5.0637207 C-2.22977628 9.66276736 -5.23406529 11.85171323 -8.4921875 14.98046875 C-9.1533255 15.63453201 -9.8144635 16.28859528 -10.49563599 16.96247864 C-12.61064395 19.04951196 -14.74235247 21.11851001 -16.875 23.1875 C-18.30452359 24.59194139 -19.73292326 25.99752777 -21.16015625 27.40429688 C-24.30332316 30.49829468 -27.45708964 33.58100603 -30.62057495 36.65422058 C-31.75520843 37.76117915 -32.87911856 38.87911856 -34 40 C-34.66 40 -35.32 40 -36 40 C-38.53348876 42.33347649 -40.77436063 44.70666882 -42.875 47.4375 C-45.13246913 50.15974219 -47.56254864 52.27056294 -50.26953125 54.52734375 C-53.54788986 57.31727873 -56.47173247 60.28957125 -59.0390625 63.7421875 C-62 66 -62 66 -64.09814453 66.0222168 C-66.66421134 65.59926472 -69.20229451 65.08440503 -71.75 64.5625 C-79.02248107 63.44681377 -83.81712635 63.5712796 -89.99072266 67.7878418 C-92.7777329 69.94202027 -95.49665095 72.15558863 -98.16210938 74.45849609 C-100.76757288 76.64379053 -103.50047094 78.43272574 -106.375 80.25 C-107.20773438 80.79140625 -108.04046875 81.3328125 -108.8984375 81.890625 C-111 83 -111 83 -114 83 C-114.20157715 82.42032471 -114.4031543 81.84064941 -114.61083984 81.2434082 C-115.53103841 78.5993569 -116.45300277 75.9559246 -117.375 73.3125 C-117.69210938 72.40048828 -118.00921875 71.48847656 -118.3359375 70.54882812 C-118.8 69.21948242 -118.8 69.21948242 -119.2734375 67.86328125 C-119.55622559 67.05157471 -119.83901367 66.23986816 -120.13037109 65.40356445 C-120.74226249 63.71235985 -121.40663547 62.03968438 -122.10791016 60.38354492 C-123 58 -123 58 -123 55 C-123.60585937 54.95101562 -124.21171875 54.90203125 -124.8359375 54.8515625 C-130.99760464 54.3017522 -136.95885951 53.32390951 -143 52 C-143 51.67 -143 51.34 -143 51 C-135.86606248 51.51537952 -128.98187183 52.44005901 -122 54 C-121.67 53.34 -121.34 52.68 -121 52 C-119.21995357 51.13783583 -117.39888803 50.35955521 -115.5625 49.625 C-114.47453125 49.18800781 -113.3865625 48.75101563 -112.265625 48.30078125 C-111.18796875 47.87152344 -110.1103125 47.44226563 -109 47 C-108.10796875 46.62230469 -107.2159375 46.24460938 -106.296875 45.85546875 C-100.91350335 43.59546839 -95.73444354 42.1098923 -90 41 C-90 40.34 -90 39.68 -90 39 C-88.2097939 38.32942113 -86.41778511 37.6636531 -84.625 37 C-83.62726563 36.62875 -82.62953125 36.2575 -81.6015625 35.875 C-79 35 -79 35 -77 35 C-77 34.34 -77 33.68 -77 33 C-69.70122204 29.84490866 -62.41457825 26.70508209 -54.98828125 23.859375 C-52.74877147 22.9618365 -52.74877147 22.9618365 -50 21 C-48.63697787 20.52650034 -47.26004065 20.09209073 -45.875 19.6875 C-41.56824796 18.3267347 -37.95710485 16.38418249 -34.140625 13.98828125 C-31.61155902 12.82066502 -29.7541573 12.82184647 -27 13 C-27 12.34 -27 11.68 -27 11 C-25.989375 10.62875 -24.97875 10.2575 -23.9375 9.875 C-19.68779757 8.28040788 -15.46702357 6.6161458 -11.25 4.9375 C-10.60023193 4.6801709 -9.95046387 4.4228418 -9.28100586 4.15771484 C-6.11673629 2.89331474 -3.01486192 1.59117712 0 0 Z " fill="#E8AA04" transform="translate(333,76)"/>
<path d="M0 0 C-1.64788689 4.26048499 -4.83986703 7.09257247 -8.03125 10.2265625 C-8.62296997 10.81545258 -9.21468994 11.40434265 -9.82434082 12.01107788 C-11.71157367 13.88714312 -13.6056427 15.75613164 -15.5 17.625 C-16.77519847 18.89016264 -18.04994331 20.15578268 -19.32421875 21.421875 C-21.65540657 23.73673206 -23.9890504 26.04904396 -26.32617188 28.35791016 C-27.88807609 29.90127461 -29.44733799 31.44733799 -31 33 C-31.66 33 -32.32 33 -33 33 C-35.53348876 35.33347649 -37.77436063 37.70666882 -39.875 40.4375 C-42.13246913 43.15974219 -44.56254864 45.27056294 -47.26953125 47.52734375 C-50.53108642 50.30297874 -53.449828 53.26000257 -56.00390625 56.6953125 C-59.87128566 59.67021974 -61.85932877 59.29125555 -66.54882812 58.72851562 C-67.9168457 58.52258789 -67.9168457 58.52258789 -69.3125 58.3125 C-70.24384766 58.19455078 -71.17519531 58.07660156 -72.13476562 57.95507812 C-74.42758855 57.66112647 -76.71396407 57.34219051 -79 57 C-78.625 55.06640625 -78.625 55.06640625 -78 53 C-76.68352881 52.30062468 -75.34977849 51.63270867 -74 51 C-73.67 50.01 -73.34 49.02 -73 48 C-70.9059918 46.33953998 -68.82756855 44.81486662 -66.625 43.3125 C-65.34720429 42.42382659 -64.06986614 41.53449494 -62.79296875 40.64453125 C-62.15407715 40.20189941 -61.51518555 39.75926758 -60.85693359 39.30322266 C-57.31234085 36.81557658 -53.86318448 34.19604626 -50.40234375 31.59375 C-48 30 -48 30 -45.50390625 29.09375 C-42.2441996 27.66985318 -40.49960462 25.53188072 -38 23 C-35.21696643 20.85528985 -32.3311099 18.86699583 -29.4375 16.875 C-27.93588517 15.83117893 -26.43457316 14.78692207 -24.93359375 13.7421875 C-24.27415771 13.2869873 -23.61472168 12.83178711 -22.93530273 12.36279297 C-21.55476136 11.39064941 -20.20530977 10.37372518 -18.87915039 9.32861328 C-17 8 -17 8 -15 8 C-15 7.34 -15 6.68 -15 6 C-14.01 6 -13.02 6 -12 6 C-12 5.34 -12 4.68 -12 4 C-10.68 4 -9.36 4 -8 4 C-8 3.34 -8 2.68 -8 2 C-5.09399739 0.74335022 -3.20395416 0 0 0 Z " fill="#F9C438" transform="translate(330,83)"/>
<path d="M0 0 C10.44039769 3.20881788 19.79064983 8.85679921 28 16 C28.53753906 16.46664062 29.07507813 16.93328125 29.62890625 17.4140625 C31.43211405 18.99137394 33.21858532 20.58563215 35 22.1875 C35.57685547 22.69885498 36.15371094 23.21020996 36.74804688 23.73706055 C39.64519175 26.39639956 41.28872454 28.13192279 42 32 C41.03578125 31.12472656 40.0715625 30.24945313 39.078125 29.34765625 C34.93038594 25.80418911 30.51364 23.07528376 25.75 20.4375 C24.89116211 19.96078857 24.03232422 19.48407715 23.14746094 18.99291992 C14.47161426 14.38535899 5.57775413 11.96105599 -4 10 C-4 9.67 -4 9.34 -4 9 C-2.02 9 -0.04 9 2 9 C2.23428313 4.2102679 2.23428313 4.2102679 0 0 Z " fill="#C29936" transform="translate(194,56)"/>
<path d="M0 0 C1.01498047 3.15320599 1.13609061 3.71544691 -0.375 6.875 C-0.91125 7.90625 -1.4475 8.9375 -2 10 C-2.165 11.051875 -2.33 12.10375 -2.5 13.1875 C-3 16 -3 16 -4.43359375 17.390625 C-6.34033657 19.34967249 -6.80980737 20.95173185 -7.5625 23.5625 C-8.79166667 27.79166667 -8.79166667 27.79166667 -11 30 C-12.6100325 34.64068192 -13.3086623 38.99442188 -13.65625 43.88671875 C-14 46 -14 46 -15.00488281 47.72216797 C-16.33100964 50.75768398 -16.25920452 53.25089947 -16.265625 56.55859375 C-16.26820312 57.83154297 -16.27078125 59.10449219 -16.2734375 60.41601562 C-16.26924805 61.07641846 -16.26505859 61.73682129 -16.26074219 62.41723633 C-16.25005288 64.42755446 -16.26064407 66.43697543 -16.2734375 68.44726562 C-16.27085938 69.72150391 -16.26828125 70.99574219 -16.265625 72.30859375 C-16.26336914 73.47189209 -16.26111328 74.63519043 -16.25878906 75.83374023 C-16.00114725 78.98596347 -15.24956646 81.12581328 -14 84 C-13.8046875 87.33203125 -13.8046875 87.33203125 -13.875 90.8125 C-13.89304687 91.97394531 -13.91109375 93.13539063 -13.9296875 94.33203125 C-13.96449219 95.65267578 -13.96449219 95.65267578 -14 97 C-14.33 95.68 -14.66 94.36 -15 93 C-15.66 93 -16.32 93 -17 93 C-21.32726353 73.45759988 -20.42588817 52.23271451 -15 33 C-14.66097656 31.79085937 -14.32195313 30.58171875 -13.97265625 29.3359375 C-10.62405404 18.96837904 -5.24023631 9.51022799 0 0 Z " fill="#997F3F" transform="translate(77,71)"/>
<path d="M0 0 C0.66 0 1.32 0 2 0 C0.54207806 4.5329642 -2.02164689 7.67826732 -5.125 11.1875 C-6.12622968 12.34138207 -7.12622062 13.4963401 -8.125 14.65234375 C-8.61613281 15.21937012 -9.10726562 15.78639648 -9.61328125 16.37060547 C-11.51971766 18.61066825 -13.32156676 20.92662532 -15.125 23.25 C-19.05832224 28.21713178 -23.45232225 32.59986142 -28 37 C-28.98126704 37.99793905 -29.96087222 38.99752031 -30.9375 40 C-33 42 -33 42 -35 43 C-35 41.35 -35 39.7 -35 38 C-34.34 38 -33.68 38 -33 38 C-33 37.34 -33 36.68 -33 36 C-34.98 36 -36.96 36 -39 36 C-37 34 -37 34 -34.4375 32.8125 C-23.12820082 26.84941498 -14.7368245 17.23681908 -7.078125 7.22265625 C-4.9671248 4.96483837 -4.01696452 4.31936336 -1 4 C-0.67 2.68 -0.34 1.36 0 0 Z " fill="#E2B960" transform="translate(259,244)"/>
<path d="M0 0 C-1.612328 4.03082 -4.46234596 6.75944137 -7.5 9.75 C-7.99886719 10.25660156 -8.49773437 10.76320313 -9.01171875 11.28515625 C-12.74658861 15 -12.74658861 15 -15 15 C-15.66 14.01 -16.32 13.02 -17 12 C-19.59329406 13.0730872 -20.83968999 13.76301998 -22.4375 16.125 C-24 18 -24 18 -26.6875 18.25 C-27.450625 18.1675 -28.21375 18.085 -29 18 C-25.29939798 14.07511907 -21.5093075 10.97784457 -17 8 C-16.34 8 -15.68 8 -15 8 C-15 7.34 -15 6.68 -15 6 C-14.01 6 -13.02 6 -12 6 C-12 5.34 -12 4.68 -12 4 C-10.68 4 -9.36 4 -8 4 C-8 3.34 -8 2.68 -8 2 C-5.09399739 0.74335022 -3.20395416 0 0 0 Z " fill="#F8C12B" transform="translate(330,83)"/>
<path d="M0 0 C3.34681104 0.51489401 6.53902606 1.14580213 9.8125 2.03125 C16.34112812 3.49448286 22.90731855 3.21350881 29.5625 3.125 C31.50479492 3.11146484 31.50479492 3.11146484 33.48632812 3.09765625 C36.65774771 3.07425094 39.82877373 3.04146228 43 3 C43 2.34 43 1.68 43 1 C45.475 1.495 45.475 1.495 48 2 C38.37353818 8.41764122 24.31917337 8.20569276 13.30078125 6.390625 C8.59406714 5.35757241 4.24423765 4.32977246 0 2 C0 1.34 0 0.68 0 0 Z " fill="#ABA853" transform="translate(155,301)"/>
<path d="M0 0 C4.08327061 -0.0590068 8.16642882 -0.09392935 12.25 -0.125 C13.38953125 -0.14175781 14.5290625 -0.15851562 15.703125 -0.17578125 C26.62079253 -0.23781345 36.42314781 0.47489297 46 6 C42.31119269 7.3269091 39.78510401 6.64836403 36.0625 5.625 C28.70068263 3.63330731 22.23691077 2.81778605 14.625 2.8125 C13.70460937 2.80025391 12.78421875 2.78800781 11.8359375 2.77539062 C5.72516412 2.76229611 0.54628466 3.22685767 -5 6 C-6.54023996 6.06950541 -8.08334988 6.08452357 -9.625 6.0625 C-10.85089844 6.04896484 -10.85089844 6.04896484 -12.1015625 6.03515625 C-13.04128906 6.01775391 -13.04128906 6.01775391 -14 6 C-11.8553857 3.8553857 -10.98260002 3.55435397 -8.125 2.875 C-7.44695312 2.70742188 -6.76890625 2.53984375 -6.0703125 2.3671875 C-4 2 -4 2 0 2 C0 1.34 0 0.68 0 0 Z " fill="#F66744" transform="translate(144,46)"/>
<path d="M0 0 C11.28260346 5.13388305 20.40898786 14.25255062 29 23 C28.67 23.99 28.34 24.98 28 26 C27.56429687 25.52949219 27.12859375 25.05898437 26.6796875 24.57421875 C23.00510276 20.73260743 19.86046141 18.26821532 15 16 C14.10087891 15.05447266 14.10087891 15.05447266 13.18359375 14.08984375 C10.69452739 11.70764249 8.40642055 10.60275166 5.25 9.25 C4.26515625 8.82203125 3.2803125 8.3940625 2.265625 7.953125 C1.51796875 7.63859375 0.7703125 7.3240625 0 7 C1.32 6.67 2.64 6.34 4 6 C3.67 5.34 3.34 4.68 3 4 C2.01 3.67 1.02 3.34 0 3 C0 2.01 0 1.02 0 0 Z " fill="#FAC64C" transform="translate(207,62)"/>
<path d="M0 0 C16.11407223 1.1641345 16.11407223 1.1641345 21 3 C22.5 5.5625 22.5 5.5625 23 8 C23.66 8.33 24.32 8.66 25 9 C25.74609375 11.0390625 25.74609375 11.0390625 26.4375 13.625 C27.34090875 16.8468506 28.30415891 19.89023449 29.6875 22.9375 C31 26 31 26 31 29 C31.99 29 32.98 29 34 29 C34 28.34 34 27.68 34 27 C35.65 27 37.3 27 39 27 C35.64871128 29.96828429 33.39704421 31.29795092 29 32 C28.69763428 31.13048706 28.69763428 31.13048706 28.38916016 30.2434082 C27.46896159 27.5993569 26.54699723 24.9559246 25.625 22.3125 C25.30789062 21.40048828 24.99078125 20.48847656 24.6640625 19.54882812 C24.2 18.21948242 24.2 18.21948242 23.7265625 16.86328125 C23.44377441 16.05157471 23.16098633 15.23986816 22.86962891 14.40356445 C22.25773751 12.71235985 21.59336453 11.03968438 20.89208984 9.38354492 C20 7 20 7 20 4 C19.39414063 3.95101562 18.78828125 3.90203125 18.1640625 3.8515625 C12.00239536 3.3017522 6.04114049 2.32390951 0 1 C0 0.67 0 0.34 0 0 Z " fill="#80641C" transform="translate(190,127)"/>
<path d="M0 0 C0.99 0.33 1.98 0.66 3 1 C3 2.65 3 4.3 3 6 C1.68 5.34 0.36 4.68 -1 4 C-1.2165625 4.54140625 -1.433125 5.0828125 -1.65625 5.640625 C-3.46499997 8.81645344 -5.91723799 11.20728081 -8.5 13.75 C-8.99886719 14.25660156 -9.49773437 14.76320312 -10.01171875 15.28515625 C-13.74658861 19 -13.74658861 19 -16 19 C-16.66 20.32 -17.32 21.64 -18 23 C-18.99 23 -19.98 23 -21 23 C-21.1546875 23.9590625 -21.1546875 23.9590625 -21.3125 24.9375 C-21.539375 25.618125 -21.76625 26.29875 -22 27 C-25.47325181 28.1577506 -28.36067448 28.06866652 -32 28 C-32 27.67 -32 27.34 -32 27 C-30.96875 26.79375 -29.9375 26.5875 -28.875 26.375 C-24.33364678 25.1222129 -22.16285971 22.38352434 -19 19 C-18.34 19 -17.68 19 -17 19 C-16.7525 18.4225 -16.505 17.845 -16.25 17.25 C-14.81700012 14.67060021 -13.21575324 12.93878408 -11 11 C-10.34 11 -9.68 11 -9 11 C-8.773125 10.4225 -8.54625 9.845 -8.3125 9.25 C-6.66800353 6.43086319 -4.5644533 4.98745131 -2 3 C-1.34 2.01 -0.68 1.02 0 0 Z " fill="#F75F48" transform="translate(297,115)"/>
<path d="M0 0 C1.57515381 0.00797607 1.57515381 0.00797607 3.18212891 0.01611328 C23.198126 0.260626 23.198126 0.260626 27.1875 4.25 C26.63513672 4.21970703 26.08277344 4.18941406 25.51367188 4.15820312 C9.67812046 3.30541867 -6.00071843 2.57299286 -21.8125 4.25 C-21.8125 3.59 -21.8125 2.93 -21.8125 2.25 C-14.47642312 0.47535459 -7.53442702 -0.06859325 0 0 Z " fill="#C15B58" transform="translate(178.8125,15.75)"/>
<path d="M0 0 C1.6875 0.9375 1.6875 0.9375 3.6875 3.9375 C3.6875 5.9375 3.6875 5.9375 2.6875 7.9375 C-0.50226724 10.03984659 -2.34715831 11.04242845 -6.1875 10.625 C-6.88875 10.398125 -7.59 10.17125 -8.3125 9.9375 C-8.6425 7.9575 -8.9725 5.9775 -9.3125 3.9375 C-2.98099961 -0.08056756 -2.98099961 -0.08056756 0 0 Z " fill="#AF5656" transform="translate(166.3125,151.0625)"/>
<path d="M0 0 C1.29024129 2.1251033 2 3.55345499 2 6.0625 C0.39823085 9.16592773 -1.80206592 9.83152408 -5 11 C-7.875 10.6875 -7.875 10.6875 -10 10 C-10.33 8.02 -10.66 6.04 -11 4 C-9.73308493 3.32591692 -8.46129251 2.66099503 -7.1875 2 C-6.47980469 1.62875 -5.77210938 1.2575 -5.04296875 0.875 C-3 0 -3 0 0 0 Z " fill="#F55756" transform="translate(152,159)"/>
<path d="M0 0 C0.33 2.31 0.66 4.62 1 7 C-3.95 8.485 -3.95 8.485 -9 10 C-11.29013653 6.5647952 -11.17842973 5.014669 -11 1 C-3.57142857 -1.42857143 -3.57142857 -1.42857143 0 0 Z " fill="#9F4646" transform="translate(202,140)"/>
<path d="M0 0 C2.5 1.375 2.5 1.375 5 3 C5 3.66 5 4.32 5 5 C5.66 5 6.32 5 7 5 C7.33 6.98 7.66 8.96 8 11 C8.99 11.33 9.98 11.66 11 12 C10.67 12.99 10.34 13.98 10 15 C11.32 15 12.64 15 14 15 C14.33 16.65 14.66 18.3 15 20 C16.65 20.33 18.3 20.66 20 21 C20.66 23.31 21.32 25.62 22 28 C19 28 19 28 17.30859375 26.59375 C10.60337062 19.09061931 3.22276756 9.66830267 0 0 Z " fill="#F8CE51" transform="translate(88,228)"/>
<path d="M0 0 C2.13138033 2.04940417 2.32073612 3.67199313 2.625 6.5625 C-0.015 8.2125 -2.655 9.8625 -5.375 11.5625 C-7.025 10.2425 -8.675 8.9225 -10.375 7.5625 C-10.3125 5.8125 -10.3125 5.8125 -9.375 3.5625 C-6.47381339 1.16520369 -3.80686707 -0.70126499 0 0 Z " fill="#B16261" transform="translate(135.375,167.4375)"/>
<path d="M0 0 C0.33 1.98 0.66 3.96 1 6 C-2.85756507 8.15305957 -5.55129785 9.39253254 -10 9 C-10.33 6.69 -10.66 4.38 -11 2 C-6.89657963 -0.38570952 -4.61380251 -1.49270081 0 0 Z " fill="#B45456" transform="translate(185,146)"/>
<path d="M0 0 C0.56878442 3.2501967 0.46785315 5.29822027 -1.3828125 8.07421875 C-4.54483957 11.77693876 -7.55974803 14.84715056 -12 17 C-12 15.35 -12 13.7 -12 12 C-11.34 12 -10.68 12 -10 12 C-10 11.34 -10 10.68 -10 10 C-11.98 10 -13.96 10 -16 10 C-14 8 -14 8 -11.3125 6.6875 C-8.69166564 5.35235797 -6.54338674 4.02851627 -4.1875 2.3125 C-1 0 -1 0 0 0 Z " fill="#FADA62" transform="translate(236,270)"/>
<path d="M0 0 C0.6875 1.625 0.6875 1.625 1 4 C0.03523618 6.01723344 -0.96838392 8.01612292 -2 10 C-2.165 11.051875 -2.33 12.10375 -2.5 13.1875 C-3 16 -3 16 -4.44140625 17.3984375 C-6.32700801 19.33602327 -6.73392455 20.84606992 -7.4375 23.4375 C-8.59798238 27.22758608 -9.81943125 29.47747996 -13 32 C-13.24944903 27.46278085 -12.66059033 24.55635927 -10.6640625 20.48828125 C-9.93316406 18.98104492 -9.93316406 18.98104492 -9.1875 17.44335938 C-8.671875 16.41017578 -8.15625 15.37699219 -7.625 14.3125 C-7.11710937 13.26771484 -6.60921875 12.22292969 -6.0859375 11.14648438 C-2.37320294 3.5598044 -2.37320294 3.5598044 0 0 Z " fill="#C35053" transform="translate(77,71)"/>
<path d="M0 0 C0.02687279 1.81242052 0.04633715 3.62495233 0.0625 5.4375 C0.07410156 6.44683594 0.08570312 7.45617187 0.09765625 8.49609375 C0 11 0 11 -1 12 C-3.5 12.125 -3.5 12.125 -6 12 C-7 11 -7 11 -7.09765625 8.71484375 C-7.08605469 7.79832031 -7.07445313 6.88179688 -7.0625 5.9375 C-7.05347656 5.01839844 -7.04445313 4.09929687 -7.03515625 3.15234375 C-7.02355469 2.44207031 -7.01195313 1.73179687 -7 1 C-3.375 -1.125 -3.375 -1.125 0 0 Z " fill="#A85D5E" transform="translate(81,253)"/>
<path d="M0 0 C2.97 0.495 2.97 0.495 6 1 C5.85904936 2.6254308 5.71207913 4.25034051 5.5625 5.875 C5.48128906 6.77992188 5.40007812 7.68484375 5.31640625 8.6171875 C5 11 5 11 4 13 C1.03 12.505 1.03 12.505 -2 12 C-1.85904936 10.3745692 -1.71207913 8.74965949 -1.5625 7.125 C-1.48128906 6.22007812 -1.40007812 5.31515625 -1.31640625 4.3828125 C-1 2 -1 2 0 0 Z " fill="#A45653" transform="translate(77,235)"/>
<path d="M0 0 C-1.72400685 1.72400685 -4.15066807 1.57857429 -6.5 1.9375 C-13.06065033 2.99244025 -19.46136307 4.35683356 -25.90234375 5.98046875 C-26.60649414 6.15787598 -27.31064453 6.3352832 -28.03613281 6.51806641 C-29.43854891 6.87296744 -30.8402814 7.23058423 -32.24121094 7.59130859 C-36.1424903 8.58434411 -40.01934403 9.39949669 -44 10 C-44.33 9.34 -44.66 8.68 -45 8 C-41.83837797 6.16064513 -39.38327601 5.73378301 -35.75 5.5625 C-31.32965655 5.24550326 -27.96915367 4.35731502 -23.92578125 2.6328125 C-20.59922654 1.53970527 -17.47023993 1.81409429 -14 2 C-14 1.34 -14 0.68 -14 0 C-12.41773035 -0.19627391 -10.83410729 -0.38165538 -9.25 -0.5625 C-8.36828125 -0.66691406 -7.4865625 -0.77132812 -6.578125 -0.87890625 C-4.11567549 -0.99456676 -2.33461936 -0.73638695 0 0 Z " fill="#F66544" transform="translate(285,84)"/>
<path d="M0 0 C1.65 0 3.3 0 5 0 C6.59138085 4.17737474 7.21278058 7.53160785 7 12 C5.35 12 3.7 12 2 12 C-0.60018816 8.09971775 -0.15085514 4.52565431 0 0 Z " fill="#B75B5B" transform="translate(76,271)"/>
<path d="M0 0 C5.28 0 10.56 0 16 0 C16 0.66 16 1.32 16 2 C16.96099609 1.96519531 16.96099609 1.96519531 17.94140625 1.9296875 C23.40987096 1.81559137 27.83098277 2.20208096 33 4 C27.58387796 7.61074803 20.78466437 5.19630959 14.6484375 4.02734375 C12.8895992 3.66906187 11.13177372 3.30577182 9.375 2.9375 C8.46621094 2.75123047 7.55742187 2.56496094 6.62109375 2.37304688 C4.4130997 1.91982704 2.20614876 1.46210307 0 1 C0 0.67 0 0.34 0 0 Z " fill="#9F8843" transform="translate(155,120)"/>
<path d="M0 0 C3.07692308 6.4 3.07692308 6.4 2.6875 9.4375 C2.460625 9.953125 2.23375 10.46875 2 11 C0.35 11 -1.3 11 -3 11 C-6 4.375 -6 4.375 -6 1 C-4 0 -4 0 0 0 Z " fill="#CB5555" transform="translate(86,288)"/>
<path d="M0 0 C-2.70727094 1.46665967 -5.09125649 2.34904983 -8.1171875 2.89453125 C-9.27541016 3.12172852 -9.27541016 3.12172852 -10.45703125 3.35351562 C-12.05935298 3.65767201 -13.66355944 3.95207373 -15.26953125 4.23632812 C-20.90933944 5.36710498 -23.75545326 7.15696444 -28 11 C-30.85873639 10.87005744 -32.46973714 10.26513143 -35 9 C-35 8.34 -35 7.68 -35 7 C-30.82077134 5.99591695 -26.63986432 4.99924491 -22.45727539 4.00927734 C-21.03589774 3.67177094 -19.61499066 3.33227614 -18.19458008 2.99072266 C-16.14786577 2.49893771 -14.09954227 2.01442782 -12.05078125 1.53125 C-10.82012939 1.23798828 -9.58947754 0.94472656 -8.3215332 0.64257812 C-5.43067073 0.08331682 -2.92881985 -0.13611113 0 0 Z " fill="#BF9C43" transform="translate(237,94)"/>
<path d="M0 0 C0.53109375 0.33773438 1.0621875 0.67546875 1.609375 1.0234375 C2.31578125 1.46945312 3.0221875 1.91546875 3.75 2.375 C4.79414062 3.03628906 4.79414062 3.03628906 5.859375 3.7109375 C7.96166352 5.03718683 7.96166352 5.03718683 10.19140625 5.97265625 C12.70943427 7.40298318 12.90903564 9.32044693 13.88671875 11.92578125 C16.2649088 16.35672482 20.36225588 19.59950006 24 23 C25.00439554 23.99558505 26.00638958 24.99365099 27 26 C21.89547375 24.52387767 19.06571692 21.41454286 15.5 17.6875 C14.94441406 17.11837891 14.38882813 16.54925781 13.81640625 15.96289062 C12.7220588 14.84150636 11.63043491 13.71745679 10.54174805 12.59057617 C7.64726476 9.60442279 4.70860214 6.67029933 1.6875 3.8125 C0 2 0 2 0 0 Z " fill="#706F3A" transform="translate(120,271)"/>
<path d="M0 0 C2.3125 0.1875 2.3125 0.1875 5 1 C6.875 3.25 6.875 3.25 8 6 C7.6875 8.8125 7.6875 8.8125 7 11 C5.68 11 4.36 11 3 11 C0.6875 8.3125 0.6875 8.3125 -1 5 C-0.75 2.125 -0.75 2.125 0 0 Z " fill="#BC5457" transform="translate(90,304)"/>
<path d="M0 0 C4.25219775 0.47246642 6.37314725 2.77272377 9 6 C8.8125 8.3125 8.8125 8.3125 8 10 C4 10 4 10 2.296875 8.6875 C1.78640625 8.130625 1.2759375 7.57375 0.75 7 C0.22921875 6.443125 -0.2915625 5.88625 -0.828125 5.3125 C-1.40820312 4.6628125 -1.40820312 4.6628125 -2 4 C-1.34 2.68 -0.68 1.36 0 0 Z " fill="#A85356" transform="translate(101,318)"/>
<path d="M0 0 C3.87132028 0.57352893 6.08172796 2.48704352 9 5 C8.67 6.65 8.34 8.3 8 10 C4.12867972 9.42647107 1.91827204 7.51295648 -1 5 C-0.67 3.35 -0.34 1.7 0 0 Z " fill="#C05051" transform="translate(114,330)"/>
<path d="M0 0 C2.61395293 2.61395293 3.25049705 5.49308596 4.3125 8.9375 C6.18441258 14.81529133 8.3817367 20.36732877 11.08203125 25.92578125 C12 28 12 28 12 30 C11.01 29.67 10.02 29.34 9 29 C8.67 28.01 8.34 27.02 8 26 C7.34 25.67 6.68 25.34 6 25 C5.3671875 22.27734375 5.3671875 22.27734375 4.875 18.9375 C4.70742187 17.83277344 4.53984375 16.72804687 4.3671875 15.58984375 C4.24601562 14.73519531 4.12484375 13.88054687 4 13 C3.34 13 2.68 13 2 13 C1.66127487 11.58461283 1.32925376 10.16762037 1 8.75 C0.814375 7.96109375 0.62875 7.1721875 0.4375 6.359375 C0 4 0 4 0 0 Z " fill="#D5CF71" transform="translate(108,158)"/>
<path d="M0 0 C7.625 0.875 7.625 0.875 11 2 C11 3.65 11 5.3 11 7 C2.42857143 6.14285714 2.42857143 6.14285714 -1 4 C-0.67 2.68 -0.34 1.36 0 0 Z " fill="#BC5759" transform="translate(144,348)"/>
<path d="M0 0 C4.81430721 -0.56638908 7.20307814 1.17438373 11 4 C10.67 5.32 10.34 6.64 10 8 C5.78287443 8.36146791 3.28889579 7.72508509 0 5 C-0.3125 2.3125 -0.3125 2.3125 0 0 Z " fill="#AC5455" transform="translate(128,341)"/>
<path d="M0 0 C2.74792483 3.40219265 6 7.48464588 6 12 C6.99 12 7.98 12 9 12 C9.66 13.98 10.32 15.96 11 18 C11.66 18 12.32 18 13 18 C14.42944945 20.35438733 15.08661261 21.48032433 14.625 24.25 C14.41875 24.8275 14.2125 25.405 14 26 C10.80469419 22.22438081 8.2770895 18.24390761 5.875 13.9375 C5.35486328 13.02000977 5.35486328 13.02000977 4.82421875 12.08398438 C3.87146542 10.39567627 2.93509643 8.69815131 2 7 C1.59007813 6.25878906 1.18015625 5.51757812 0.7578125 4.75390625 C0 3 0 3 0 0 Z " fill="#806A33" transform="translate(74,202)"/>
<path d="M0 0 C-0.598125 0.28875 -1.19625 0.5775 -1.8125 0.875 C-4.19327792 2.04742026 -4.19327792 2.04742026 -7 4 C-9.56797121 4.57129504 -12.09690996 5.06587078 -14.6875 5.5 C-21.19987489 6.63957352 -21.19987489 6.63957352 -27.625 8.1875 C-30.88809275 8.97305937 -33.65928886 9.16703556 -37 9 C-37 8.67 -37 8.34 -37 8 C-34.02289362 7.17925145 -31.04366091 6.36827916 -28.0625 5.5625 C-26.81629883 5.21735352 -26.81629883 5.21735352 -25.54492188 4.86523438 C-20.68309593 3.55991924 -16.0331822 2.65875893 -11.00561523 2.32397461 C-6.86746952 1.65552429 -4.44850505 -0.24713917 0 0 Z " fill="#FD9C46" transform="translate(293,82)"/>
<path d="M0 0 C-1.03640625 0.75925781 -2.0728125 1.51851562 -3.140625 2.30078125 C-4.51042517 3.3046759 -5.88021637 4.30858279 -7.25 5.3125 C-8.27287109 6.06176758 -8.27287109 6.06176758 -9.31640625 6.82617188 C-10.31220703 7.55610352 -10.31220703 7.55610352 -11.328125 8.30078125 C-11.96943359 8.7695166 -12.61074219 9.23825195 -13.27148438 9.72119141 C-14.65183812 10.74241922 -16.00968744 11.79404227 -17.359375 12.85546875 C-19 14 -19 14 -21 14 C-21 13.01 -21 12.02 -21 11 C-20.01 11 -19.02 11 -18 11 C-18 10.34 -18 9.68 -18 9 C-17.01 9 -16.02 9 -15 9 C-15 8.34 -15 7.68 -15 7 C-14.01 7 -13.02 7 -12 7 C-12.33 6.01 -12.66 5.02 -13 4 C-11.35 4 -9.7 4 -8 4 C-7.896875 3.360625 -7.79375 2.72125 -7.6875 2.0625 C-7.460625 1.381875 -7.23375 0.70125 -7 0 C-3.86650268 -1.04449911 -3.01031744 -0.93423645 0 0 Z " fill="#AC7D1D" transform="translate(251,139)"/>
<path d="M0 0 C-1.61126295 4.05227809 -4.50021998 6.76221847 -7.5625 9.75 C-8.06974609 10.25660156 -8.57699219 10.76320313 -9.09960938 11.28515625 C-12.85951188 15 -12.85951188 15 -14 15 C-14 13.02 -14 11.04 -14 9 C-12.68 9 -11.36 9 -10 9 C-10 8.34 -10 7.68 -10 7 C-9.01 7 -8.02 7 -7 7 C-7 5.68 -7 4.36 -7 3 C-6.34 3 -5.68 3 -5 3 C-5 2.34 -5 1.68 -5 1 C-3 0 -3 0 0 0 Z " fill="#BF9F49" transform="translate(330,83)"/>
<path d="M0 0 C0.33 1.32 0.66 2.64 1 4 C0.34 4 -0.32 4 -1 4 C-1 4.66 -1 5.32 -1 6 C-1.66 6 -2.32 6 -3 6 C-3.2475 6.70125 -3.495 7.4025 -3.75 8.125 C-5.16088026 11.37002459 -6.97895398 14.10316737 -9 17 C-10.32 16.67 -11.64 16.34 -13 16 C-8.80898673 10.53184364 -4.52923792 5.19205322 0 0 Z " fill="#A54948" transform="translate(91,54)"/>
<path d="M0 0 C4.61943534 0.55157437 8.02802223 1.82053357 12.125 4 C16.87241423 6.517666 16.87241423 6.517666 22 8 C22 8.66 22 9.32 22 10 C22.99 10.33 23.98 10.66 25 11 C25.33 11.99 25.66 12.98 26 14 C20.89552714 12.02777893 16.14688432 9.55016505 11.3125 7 C10.44560547 6.54882812 9.57871094 6.09765625 8.68554688 5.6328125 C7.85732422 5.19710937 7.02910156 4.76140625 6.17578125 4.3125 C5.42208252 3.91675781 4.66838379 3.52101562 3.8918457 3.11328125 C2 2 2 2 0 0 Z " fill="#F87345" transform="translate(190,53)"/>
<path d="M0 0 C0 0.33 0 0.66 0 1 C-0.56920166 1.01981934 -1.13840332 1.03963867 -1.72485352 1.06005859 C-4.33781712 1.15611758 -6.95006802 1.26546407 -9.5625 1.375 C-10.45775391 1.4059375 -11.35300781 1.436875 -12.27539062 1.46875 C-18.23812673 1.73084829 -23.58586371 2.29293185 -29 5 C-30.54023996 5.06950541 -32.08334988 5.08452357 -33.625 5.0625 C-34.85089844 5.04896484 -34.85089844 5.04896484 -36.1015625 5.03515625 C-37.04128906 5.01775391 -37.04128906 5.01775391 -38 5 C-29.53076938 -3.46923062 -10.81975258 -0.25592573 0 0 Z " fill="#FA9842" transform="translate(168,47)"/>
<path d="M0 0 C-2.58144753 2.58144753 -4.43775525 2.66087075 -8 3.375 C-13.19362915 4.50429905 -17.88613837 6.00107371 -22.765625 8.08203125 C-25.79105971 9.32499831 -28.83779752 10.17507761 -32 11 C-25.03743455 3.36712545 -10.05121468 -0.93499671 0 0 Z " fill="#F66742" transform="translate(140,48)"/>
<path d="M0 0 C0.66 0 1.32 0 2 0 C1.3503125 1.85625 1.3503125 1.85625 0.6875 3.75 C-1.90354296 12.26342687 -2.80554117 21.2047887 -4 30 C-4.33 30 -4.66 30 -5 30 C-5.08767555 26.62516587 -5.14061628 23.25062785 -5.1875 19.875 C-5.21263672 18.92367187 -5.23777344 17.97234375 -5.26367188 16.9921875 C-5.33731551 9.92239816 -3.94080937 5.91121406 0 0 Z " fill="#D3CB5E" transform="translate(109,112)"/>
<path d="M0 0 C0.33 1.65 0.66 3.3 1 5 C-1.97 7.475 -1.97 7.475 -5 10 C-5 9.34 -5 8.68 -5 8 C-5.99 8 -6.98 8 -8 8 C-7.63487253 5.2980567 -7.30130763 3.41609148 -5.6875 1.1875 C-4 0 -4 0 0 0 Z " fill="#E8BB3A" transform="translate(315,94)"/>
<path d="M0 0 C1.43739513 -0.02712066 2.87493863 -0.04645067 4.3125 -0.0625 C5.51326172 -0.07990234 5.51326172 -0.07990234 6.73828125 -0.09765625 C9 0 9 0 12 1 C12 2.32 12 3.64 12 5 C7.83861737 5.08159574 4.0527516 4.98248524 0 4 C0 2.68 0 1.36 0 0 Z " fill="#A34949" transform="translate(161,353)"/>
<path d="M0 0 C0.66 0 1.32 0 2 0 C0.53416665 4.54071365 -2.04531733 7.76266969 -5.125 11.3125 C-5.82689453 12.13717773 -5.82689453 12.13717773 -6.54296875 12.97851562 C-7.68952483 14.32396409 -8.84397451 15.662679 -10 17 C-10.33 16.01 -10.66 15.02 -11 14 C-7.17241379 6.34482759 -7.17241379 6.34482759 -4 4 C-3.01 4 -2.02 4 -1 4 C-0.67 2.68 -0.34 1.36 0 0 Z " fill="#C1915E" transform="translate(259,244)"/>
<path d="M0 0 C0 0.99 0 1.98 0 3 C-1.828125 4.5 -1.828125 4.5 -4.25 6 C-6.63696541 7.49770379 -8.94556526 8.95770538 -11.171875 10.6875 C-13 12 -13 12 -15 12 C-15.33 13.32 -15.66 14.64 -16 16 C-17.32 16.33 -18.64 16.66 -20 17 C-19.505 15.515 -19.505 15.515 -19 14 C-18.34 14 -17.68 14 -17 14 C-16.67 13.01 -16.34 12.02 -16 11 C-14.66666667 10.33333333 -13.33333333 9.66666667 -12 9 C-10.31183067 7.35511706 -8.64646685 5.68662458 -7 4 C-2.35135135 0 -2.35135135 0 0 0 Z " fill="#FDAA45" transform="translate(100,65)"/>
<path d="M0 0 C-0.598125 0.28875 -1.19625 0.5775 -1.8125 0.875 C-4.19327792 2.04742026 -4.19327792 2.04742026 -7 4 C-9.6875 4.125 -9.6875 4.125 -12 4 C-12 5.32 -12 6.64 -12 8 C-10.35 8 -8.7 8 -7 8 C-7 8.33 -7 8.66 -7 9 C-10.375 9.625 -10.375 9.625 -14 10 C-14.66 9.34 -15.32 8.68 -16 8 C-15.9375 5.5 -15.9375 5.5 -15 3 C-10.33240224 0.40689013 -5.26896283 -0.1505418 0 0 Z " fill="#B59A43" transform="translate(167,110)"/>
<path d="M0 0 C5.16309352 -0.07822869 9.91902274 -0.04225175 15 1 C15 1.33 15 1.66 15 2 C11.04 2 7.08 2 3 2 C2.67 6.29 2.34 10.58 2 15 C1.01 15 0.02 15 -1 15 C-0.67 10.05 -0.34 5.1 0 0 Z " fill="#B45038" transform="translate(253,140)"/>
<path d="M0 0 C0.66 0.33 1.32 0.66 2 1 C-1.625 4 -1.625 4 -5 4 C-5.33 4.99 -5.66 5.98 -6 7 C-8.31 7.33 -10.62 7.66 -13 8 C-13 8.99 -13 9.98 -13 11 C-13.61875 11.12375 -14.2375 11.2475 -14.875 11.375 C-17.19120832 11.87197356 -17.19120832 11.87197356 -19 14 C-19.33 13.01 -19.66 12.02 -20 11 C-17.98285723 9.72298179 -15.9616067 8.45339806 -13.9375 7.1875 C-13.37611328 6.83107422 -12.81472656 6.47464844 -12.23632812 6.10742188 C-8.28359639 3.64543468 -4.37720299 1.61265373 0 0 Z " fill="#AB4C4B" transform="translate(129,27)"/>
<path d="M0 0 C0 0.99 0 1.98 0 3 C-0.66 3 -1.32 3 -2 3 C-2 3.66 -2 4.32 -2 5 C-2.66 5 -3.32 5 -4 5 C-4.2784375 6.11375 -4.2784375 6.11375 -4.5625 7.25 C-6.63809824 11.22070968 -8.96326521 12.1258017 -13 14 C-13.66 13.67 -14.32 13.34 -15 13 C-5.77448747 3.40546697 -5.77448747 3.40546697 0 0 Z " fill="#9B4241" transform="translate(107,40)"/>
<path d="M0 0 C3.63 0 7.26 0 11 0 C11.33 1.32 11.66 2.64 12 4 C8.04 4 4.08 4 0 4 C-0.33 3.34 -0.66 2.68 -1 2 C-0.67 1.34 -0.34 0.68 0 0 Z " fill="#994647" transform="translate(179,355)"/>
<path d="M0 0 C2.85061382 4.46275872 1.64372894 8.10411588 0.71484375 13.0703125 C-0.11203709 16.45916839 -1.18963733 19.03758836 -3 22 C-3.33 22 -3.66 22 -4 22 C-3.5697663 14.3299717 -2.25768639 7.34103058 0 0 Z " fill="#835538" transform="translate(63,101)"/>
<path d="M0 0 C0.33 0.66 0.66 1.32 1 2 C0.67 2.66 0.34 3.32 0 4 C-2.28515625 4.6328125 -2.28515625 4.6328125 -5.0625 5.125 C-5.98160156 5.29257812 -6.90070313 5.46015625 -7.84765625 5.6328125 C-8.91306641 5.81457031 -8.91306641 5.81457031 -10 6 C-10.33 4.68 -10.66 3.36 -11 2 C-7.17679443 0.57741188 -4.08718695 -0.24042276 0 0 Z " fill="#B67A7B" transform="translate(243,350)"/>
<path d="M0 0 C2.5 1.375 2.5 1.375 5 3 C5 3.66 5 4.32 5 5 C5.66 5 6.32 5 7 5 C7.33 6.98 7.66 8.96 8 11 C8.99 11.33 9.98 11.66 11 12 C11.5625 13.75 11.5625 13.75 12 16 C12.6469365 17.6744239 13.30959426 19.34302621 14 21 C10.01443691 17.28344472 7.07979098 13.41802823 4.1875 8.8125 C3.78080078 8.18408203 3.37410156 7.55566406 2.95507812 6.90820312 C0 2.26450893 0 2.26450893 0 0 Z " fill="#7C6A3A" transform="translate(88,228)"/>
<path d="M0 0 C0 0.99 0 1.98 0 3 C-2.98055586 5.42603384 -5.00323092 6.91332443 -8.875 7.25 C-9.57625 7.1675 -10.2775 7.085 -11 7 C-10.8125 5.1875 -10.8125 5.1875 -10 3 C-6.62712264 0.37665094 -4.24348127 -0.36372697 0 0 Z " fill="#A18888" transform="translate(309,324)"/>
<path d="M0 0 C0.66 0.33 1.32 0.66 2 1 C1.07838213 4.27552201 0.13500785 7.5443819 -0.8125 10.8125 C-1.20405273 12.2056543 -1.20405273 12.2056543 -1.60351562 13.62695312 C-1.86455078 14.51962891 -2.12558594 15.41230469 -2.39453125 16.33203125 C-2.63018799 17.15421143 -2.86584473 17.9763916 -3.10864258 18.82348633 C-4 21 -4 21 -7 24 C-6.505 19.545 -6.505 19.545 -6 15 C-5.34 15 -4.68 15 -4 15 C-4 13.02 -4 11.04 -4 9 C-3.34 8.67 -2.68 8.34 -2 8 C-1.31527335 6.11235097 -1.31527335 6.11235097 -0.875 3.9375 C-0.62363281 2.83728516 -0.62363281 2.83728516 -0.3671875 1.71484375 C-0.24601562 1.14894531 -0.12484375 0.58304688 0 0 Z " fill="#BF5756" transform="translate(296,169)"/>
<path d="M0 0 C0.99 0.33 1.98 0.66 3 1 C0.25977382 4.7267076 -2.73602802 7.58574231 -6.265625 10.51953125 C-7.80621292 11.83458265 -9.25523408 13.25523408 -10.6875 14.6875 C-12.69413609 16.69413609 -14.68472871 18.37073502 -17 20 C-13.85972313 13.1067093 -8.21367511 7.90694101 -2.3828125 3.2265625 C-0.85896891 2.02824461 -0.85896891 2.02824461 0 0 Z " fill="#FEB447" transform="translate(289,120)"/>
<path d="M0 0 C0 1.32 0 2.64 0 4 C-3.67410785 5.17571451 -7.16929183 5.07366746 -11 5 C-11 3.68 -11 2.36 -11 1 C-7.27569643 0.30710631 -3.78916254 -0.11144596 0 0 Z " fill="#955052" transform="translate(225,353)"/>
<path d="M0 0 C0.33 0 0.66 0 1 0 C1.66493843 6.38340895 0.82717741 10.25258686 -2.80859375 15.56640625 C-3.20175781 16.03949219 -3.59492187 16.51257813 -4 17 C-4.33 17 -4.66 17 -5 17 C-5.27771418 12.32051602 -4.54837397 9.32416664 -2.5 5.125 C-2.0359375 4.15820312 -1.571875 3.19140625 -1.09375 2.1953125 C-0.7328125 1.47085938 -0.371875 0.74640625 0 0 Z " fill="#BE564D" transform="translate(69,86)"/>
<path d="M0 0 C-0.0625 1.8125 -0.0625 1.8125 -1 4 C-4.4960903 5.81278756 -7.03981755 7 -11 7 C-10.875 5.1875 -10.875 5.1875 -10 3 C-6.32115375 0.71094011 -4.38448044 0 0 0 Z " fill="#886263" transform="translate(294,332)"/>
<path d="M0 0 C-7.2547941 4.41596163 -14.90734406 7.44442444 -23 10 C-20.98564265 6.97846397 -20.2983408 6.40667338 -17.1875 4.9375 C-16.11822266 4.42896484 -16.11822266 4.42896484 -15.02734375 3.91015625 C-12.71033399 2.86995726 -10.36692901 1.92047239 -8 1 C-7.319375 0.608125 -6.63875 0.21625 -5.9375 -0.1875 C-3.5476033 -1.18971474 -2.39624834 -0.85580298 0 0 Z " fill="#FDA247" transform="translate(123,55)"/>
<path d="M0 0 C0.4375 2.125 0.4375 2.125 0 5 C-2.12689146 7.276147 -4.5023433 9.1458722 -7 11 C-7 7 -7 7 -5 4.75 C-4.34 4.1725 -3.68 3.595 -3 3 C-6.07322544 2.08941469 -8.80097361 1.91113816 -12 2 C-7.86666662 -0.29629632 -4.59061602 -1.53020534 0 0 Z " fill="#B79B49" transform="translate(338,72)"/>
<path d="M0 0 C3.3 0 6.6 0 10 0 C10 1.32 10 2.64 10 4 C6.7 4 3.4 4 0 4 C0 2.68 0 1.36 0 0 Z " fill="#944646" transform="translate(197,355)"/>
<path d="M0 0 C1 2 1 2 0.22265625 4.609375 C-0.54708275 6.69311291 -1.31790574 8.77645073 -2.08984375 10.859375 C-3.02134622 14.07365819 -3.00474152 16.68093352 -3 20 C-3.66 20.66 -4.32 21.32 -5 22 C-5.40047444 24.32275177 -5.7397104 26.65739357 -6 29 C-6.33 29 -6.66 29 -7 29 C-7.33078804 22.0182609 -6.30829986 16.58836482 -4.0625 10 C-3.78470703 9.14277344 -3.50691406 8.28554687 -3.22070312 7.40234375 C-1.17184733 1.17184733 -1.17184733 1.17184733 0 0 Z " fill="#FDEA4D" transform="translate(100,129)"/>
<path d="M0 0 C0.99 0.33 1.98 0.66 3 1 C3 1.66 3 2.32 3 3 C4.65 3 6.3 3 8 3 C7.67 4.32 7.34 5.64 7 7 C7.556875 7.20625 8.11375 7.4125 8.6875 7.625 C11.92501302 9.55000774 13.68231141 12.03850902 16 15 C15.01 15 14.02 15 13 15 C11.77494832 13.57629129 10.55717595 12.14442966 9.40625 10.66015625 C7.95782282 8.95020749 6.44314924 7.63712853 4.6875 6.25 C3.800625 5.5075 2.91375 4.765 2 4 C2 3.34 2 2.68 2 2 C1.34 2 0.68 2 0 2 C0 1.34 0 0.68 0 0 Z " fill="#F37B48" transform="translate(174,258)"/>
<path d="M0 0 C0.33 1.98 0.66 3.96 1 6 C-1.64 6 -4.28 6 -7 6 C-6.67 5.01 -6.34 4.02 -6 3 C-6.99 2.67 -7.98 2.34 -9 2 C-3.375 0 -3.375 0 0 0 Z " fill="#EA5F5C" transform="translate(202,140)"/>
<path d="M0 0 C0 1.32 0 2.64 0 4 C-3.3 4.33 -6.6 4.66 -10 5 C-10 4.01 -10 3.02 -10 2 C-6.49223216 0.39644899 -3.85645121 -0.22036864 0 0 Z " fill="#A26C6B" transform="translate(260,346)"/>
<path d="M0 0 C0 1.32 0 2.64 0 4 C-3.61973402 5.31626692 -6.09567131 6 -10 6 C-9.875 4.125 -9.875 4.125 -9 2 C-5.82254537 0.61849799 -3.46877176 0 0 0 Z " fill="#935A5D" transform="translate(277,340)"/>
<path d="M0 0 C0.66 0.33 1.32 0.66 2 1 C0.2123833 3.1493251 -1.57982184 5.29450607 -3.375 7.4375 C-3.88289062 8.04916016 -4.39078125 8.66082031 -4.9140625 9.29101562 C-8.7734375 13.88671875 -8.7734375 13.88671875 -11 15 C-11 14.01 -11 13.02 -11 12 C-10.34 12 -9.68 12 -9 12 C-8.938125 11.236875 -8.87625 10.47375 -8.8125 9.6875 C-7.7340866 6.12044028 -6.19330413 5.74871416 -3 4 C-1.21655822 1.93045153 -1.21655822 1.93045153 0 0 Z " fill="#F16848" transform="translate(251,250)"/>
<path d="M0 0 C0.66 0 1.32 0 2 0 C0.49962568 3.11616205 -1.22119189 6.03531981 -3 9 C-4.68209177 11.99150452 -6.34330192 14.99436988 -8 18 C-9.21386936 14.35839192 -8.6674695 13.66834531 -7.0625 10.3125 C-6.68222656 9.50425781 -6.30195312 8.69601563 -5.91015625 7.86328125 C-5.60980469 7.24839844 -5.30945313 6.63351563 -5 6 C-4.01 6 -3.02 6 -2 6 C-2 4.68 -2 3.36 -2 2 C-1.34 2 -0.68 2 0 2 C0 1.34 0 0.68 0 0 Z " fill="#F86544" transform="translate(77,81)"/>
<path d="M0 0 C0.33 0 0.66 0 1 0 C1.23057307 8.05724784 1.40649883 16.21601612 -1 24 C-1.66 24.33 -2.32 24.66 -3 25 C-2.91621094 24.32453125 -2.83242188 23.6490625 -2.74609375 22.953125 C-2.64425781 22.06109375 -2.54242188 21.1690625 -2.4375 20.25 C-2.33308594 19.36828125 -2.22867187 18.4865625 -2.12109375 17.578125 C-1.86694504 15.04430871 -1.86694504 15.04430871 -2.59765625 12.859375 C-2.73042969 12.24578125 -2.86320312 11.6321875 -3 11 C-2.34 10.01 -1.68 9.02 -1 8 C-0.54860541 5.9507906 -0.54860541 5.9507906 -0.375 3.8125 C-0.25125 2.554375 -0.1275 1.29625 0 0 Z " fill="#CC5D5C" transform="translate(300,142)"/>
<path d="M0 0 C0 0.99 0 1.98 0 3 C-1.65 3.33 -3.3 3.66 -5 4 C-5 4.66 -5 5.32 -5 6 C-6.32 5.67 -7.64 5.34 -9 5 C-8.67 3.35 -8.34 1.7 -8 0 C-4.71023192 -1.09658936 -3.28696233 -0.79953138 0 0 Z " fill="#F25856" transform="translate(168,155)"/>
<path d="M0 0 C2 1 2 1 3.03515625 3.765625 C3.37417969 4.91546875 3.71320313 6.0653125 4.0625 7.25 C4.40410156 8.38953125 4.74570313 9.5290625 5.09765625 10.703125 C5.85297344 13.46281205 6.4871117 16.1870456 7 19 C6.01 19 5.02 19 4 19 C3.32900016 16.39688008 2.66304662 13.79264602 2 11.1875 C1.80921875 10.44951172 1.6184375 9.71152344 1.421875 8.95117188 C0.64737086 5.89464659 0 3.16626522 0 0 Z " fill="#FAD93F" transform="translate(99,229)"/>
<path d="M0 0 C2 3 2 3 1.828125 5.05078125 C1.63734375 5.79714844 1.4465625 6.54351562 1.25 7.3125 C1.05148438 8.10140625 0.85296875 8.8903125 0.6484375 9.703125 C-0.14221996 12.50376709 -1.01676746 15.26099506 -2 18 C-2.99 17.34 -3.98 16.68 -5 16 C-3.35 10.72 -1.7 5.44 0 0 Z " fill="#813332" transform="translate(251,156)"/>
<path d="M0 0 C2.5 -0.5 2.5 -0.5 6 0 C8.95370122 2.41377734 11.48389665 5.13904999 14 8 C13.67 8.99 13.34 9.98 13 11 C12.56429687 10.52949219 12.12859375 10.05898437 11.6796875 9.57421875 C8.05510127 5.7848786 4.92794549 3.04329447 0 1 C0 0.67 0 0.34 0 0 Z " fill="#DF9254" transform="translate(222,77)"/>
<path d="M0 0 C0 0.33 0 0.66 0 1 C-6.93 0.67 -13.86 0.34 -21 0 C-21 -0.33 -21 -0.66 -21 -1 C-13.42361705 -2.51527659 -7.25289454 -2.41763151 0 0 Z " fill="#C85651" transform="translate(206,19)"/>
<path d="M0 0 C-0.33 1.32 -0.66 2.64 -1 4 C-1.66 4 -2.32 4 -3 4 C-3 4.66 -3 5.32 -3 6 C-3.66 6 -4.32 6 -5 6 C-5 6.66 -5 7.32 -5 8 C-5.99 7.67 -6.98 7.34 -8 7 C-7.62005832 4.24542282 -7.1926367 3.17979426 -5.125 1.25 C-3 0 -3 0 0 0 Z " fill="#9E7F7C" transform="translate(322,313)"/>
<path d="M0 0 C1 2 1 2 1 6 C1.66 6.33 2.32 6.66 3 7 C3 6.34 3 5.68 3 5 C3.99 5 4.98 5 6 5 C6 5.66 6 6.32 6 7 C3 9 3 9 0.3125 8.625 C-0.450625 8.41875 -1.21375 8.2125 -2 8 C-2.33 6.02 -2.66 4.04 -3 2 C-2.01 1.34 -1.02 0.68 0 0 Z " fill="#8A4445" transform="translate(144,161)"/>
<path d="M0 0 C2.5654594 2.5654594 2.54046087 4.47686668 3 8 C4.65 8 6.3 8 8 8 C8 7.34 8 6.68 8 6 C9.65 6 11.3 6 13 6 C9.71195019 8.91227269 7.40114397 10.49701212 3 11 C2.49384702 9.73160474 1.99530901 8.46016898 1.5 7.1875 C1.2215625 6.47980469 0.943125 5.77210938 0.65625 5.04296875 C0 3 0 3 0 0 Z " fill="#69531F" transform="translate(216,148)"/>
<path d="M0 0 C-2.79624958 2.18697502 -5.63307872 3.99152813 -8.75 5.6875 C-9.94882813 6.34298828 -9.94882813 6.34298828 -11.171875 7.01171875 C-11.77515625 7.33785156 -12.3784375 7.66398437 -13 8 C-13.33 7.01 -13.66 6.02 -14 5 C-12.68 5 -11.36 5 -10 5 C-10 3.68 -10 2.36 -10 1 C-6.59437148 0.22157062 -3.49234244 -0.09978121 0 0 Z " fill="#AB8B3C" transform="translate(149,71)"/>
<path d="M0 0 C0.99 0.33 1.98 0.66 3 1 C0.69 4.3 -1.62 7.6 -4 11 C-6 8 -6 8 -5.625 5.3125 C-5.41875 4.549375 -5.2125 3.78625 -5 3 C-3.02 3.495 -3.02 3.495 -1 4 C-0.67 2.68 -0.34 1.36 0 0 Z " fill="#BC4B4C" transform="translate(266,233)"/>
<path d="M0 0 C6.01893759 3.08453491 11.00623769 6.43123874 16 11 C15.01 11.33 14.02 11.66 13 12 C12.67 11.01 12.34 10.02 12 9 C10.17765712 7.87998174 10.17765712 7.87998174 8 7 C5.33333333 5.66666667 2.66666667 4.33333333 0 3 C0 2.01 0 1.02 0 0 Z " fill="#FEB049" transform="translate(207,62)"/>
<path d="M0 0 C0.66 0.33 1.32 0.66 2 1 C-1.16952847 4.26008643 -4.39937989 7.22237877 -8 10 C-8.33 8.68 -8.66 7.36 -9 6 C-8.01 6 -7.02 6 -6 6 C-6 5.34 -6 4.68 -6 4 C-5.34 4 -4.68 4 -4 4 C-4 3.34 -4 2.68 -4 2 C-2.68 2 -1.36 2 0 2 C0 1.34 0 0.68 0 0 Z " fill="#B0AF57" transform="translate(221,288)"/>
<path d="M0 0 C0.66 1.32 1.32 2.64 2 4 C1.01 4 0.02 4 -1 4 C-1.33 5.98 -1.66 7.96 -2 10 C-3.98 10.66 -5.96 11.32 -8 12 C-7.05208333 10.578125 -6.10416667 9.15625 -5.15625 7.734375 C-4.7746875 7.16203125 -4.393125 6.5896875 -4 6 C-2 3 -2 3 0 0 Z " fill="#8B3D3D" transform="translate(220,217)"/>
<path d="M0 0 C1.2065625 0.0309375 1.2065625 0.0309375 2.4375 0.0625 C2.1075 0.7225 1.7775 1.3825 1.4375 2.0625 C0.7775 2.0625 0.1175 2.0625 -0.5625 2.0625 C-0.2325 3.0525 0.0975 4.0425 0.4375 5.0625 C1.0975 5.3925 1.7575 5.7225 2.4375 6.0625 C2.4375 6.7225 2.4375 7.3825 2.4375 8.0625 C0.7875 8.0625 -0.8625 8.0625 -2.5625 8.0625 C-2.94313221 5.7364143 -3.27519945 3.40194736 -3.5625 1.0625 C-2.5625 0.0625 -2.5625 0.0625 0 0 Z " fill="#A05051" transform="translate(177.5625,146.9375)"/>
<path d="M0 0 C4.81938524 -0.23509196 8.46298506 0.54815522 13 2 C9.54785147 4.30143236 8.76520676 4.13833854 4.8125 3.625 C3.46091797 3.45871094 3.46091797 3.45871094 2.08203125 3.2890625 C1.39496094 3.19367188 0.70789063 3.09828125 0 3 C0 2.01 0 1.02 0 0 Z " fill="#C1A047" transform="translate(175,122)"/>
<path d="M0 0 C0.99 0.33 1.98 0.66 3 1 C3 2.65 3 4.3 3 6 C2.46375 5.731875 1.9275 5.46375 1.375 5.1875 C-1.57282601 4.95477689 -2.04811495 5.5799856 -4.25 7.4375 C-5.61125 8.7059375 -5.61125 8.7059375 -7 10 C-7.66 9.67 -8.32 9.34 -9 9 C-8.51789063 8.60167969 -8.03578125 8.20335938 -7.5390625 7.79296875 C-6.90742188 7.26316406 -6.27578125 6.73335938 -5.625 6.1875 C-4.99851562 5.66542969 -4.37203125 5.14335938 -3.7265625 4.60546875 C-1.7778952 2.91774261 -1.7778952 2.91774261 0 0 Z " fill="#EC6B46" transform="translate(297,115)"/>
<path d="M0 0 C0.99 0 1.98 0 3 0 C1.54331217 2.96783129 -0.01232086 5.86415313 -1.625 8.75 C-2.29402344 9.94882813 -2.29402344 9.94882813 -2.9765625 11.171875 C-3.48316406 12.07679687 -3.48316406 12.07679687 -4 13 C-4.33 13 -4.66 13 -5 13 C-5 10.69 -5 8.38 -5 6 C-3.68 5.67 -2.36 5.34 -1 5 C-0.67 3.35 -0.34 1.7 0 0 Z " fill="#BA9B48" transform="translate(120,90)"/>
<path d="M0 0 C2.475 0.495 2.475 0.495 5 1 C5.103125 1.928125 5.20625 2.85625 5.3125 3.8125 C6.0070192 7.03254358 6.47740939 8.02579865 9 10 C8.67 10.66 8.34 11.32 8 12 C6.65772954 10.57084149 5.32642904 9.13137328 4 7.6875 C3.2575 6.88699219 2.515 6.08648437 1.75 5.26171875 C0 3 0 3 0 0 Z " fill="#858244" transform="translate(111,259)"/>
<path d="M0 0 C-0.598125 0.28875 -1.19625 0.5775 -1.8125 0.875 C-4.19327792 2.04742026 -4.19327792 2.04742026 -7 4 C-9.04869074 4.44429438 -11.11454293 4.81294195 -13.1875 5.125 C-14.27417969 5.29257813 -15.36085938 5.46015625 -16.48046875 5.6328125 C-17.31191406 5.75398438 -18.14335937 5.87515625 -19 6 C-18.67 5.01 -18.34 4.02 -18 3 C-17.39671875 2.95101562 -16.7934375 2.90203125 -16.171875 2.8515625 C-15.37265625 2.77679688 -14.5734375 2.70203125 -13.75 2.625 C-12.56664062 2.52058594 -12.56664062 2.52058594 -11.359375 2.4140625 C-7.08819035 1.66448374 -4.55174599 -0.25287478 0 0 Z " fill="#F0A242" transform="translate(293,82)"/>
<path d="M0 0 C2.57781906 2.57781906 2.62129616 4.4401839 3 8 C2 9 2 9 -0.5625 9.0625 C-1.366875 9.041875 -2.17125 9.02125 -3 9 C-4.0625 7.1875 -4.0625 7.1875 -5 5 C-4.67 4.01 -4.34 3.02 -4 2 C-3.54625 2.825 -3.0925 3.65 -2.625 4.5 C-2.08875 5.325 -1.5525 6.15 -1 7 C-0.34 7 0.32 7 1 7 C0.67 4.69 0.34 2.38 0 0 Z " fill="#7D3536" transform="translate(86,290)"/>
<path d="M0 0 C0.66 0.33 1.32 0.66 2 1 C1.52269162 2.4589426 1.04308958 3.91713496 0.5625 5.375 C0.29566406 6.18710938 0.02882812 6.99921875 -0.24609375 7.8359375 C-1 10 -1 10 -2 12 C-2.99 11.67 -3.98 11.34 -5 11 C-3.35 7.37 -1.7 3.74 0 0 Z " fill="#83393C" transform="translate(245,174)"/>
<path d="M0 0 C1.42944945 2.35438733 2.08661261 3.48032433 1.625 6.25 C1.41875 6.8275 1.2125 7.405 1 8 C0.01 8 -0.98 8 -2 8 C-2 6.02 -2 4.04 -2 2 C-3.32 2.33 -4.64 2.66 -6 3 C-6 2.34 -6 1.68 -6 1 C-3 0 -3 0 0 0 Z " fill="#BB5C5D" transform="translate(152,159)"/>
<path d="M0 0 C0.66 0.33 1.32 0.66 2 1 C1.54625 1.4125 1.0925 1.825 0.625 2.25 C-1.09686822 3.92669589 -1.09686822 3.92669589 -2 6.125 C-3 8 -3 8 -6 9 C-8.33299825 9.03954234 -10.66708189 9.04401732 -13 9 C-13 8.67 -13 8.34 -13 8 C-11.96875 7.79375 -10.9375 7.5875 -9.875 7.375 C-5.33187037 6.11661786 -3.08755593 3.46408714 0 0 Z " fill="#F76D43" transform="translate(278,134)"/>
<path d="M0 0 C0.33 0.66 0.66 1.32 1 2 C-1.20101889 6.27975895 -4.17942593 10.11218169 -7 14 C-7.33 13.34 -7.66 12.68 -8 12 C-6.8125 9.75 -6.8125 9.75 -5 7 C-4.29875 5.9275 -3.5975 4.855 -2.875 3.75 C-1 1 -1 1 0 0 Z " fill="#FDA746" transform="translate(79,82)"/>
<path d="M0 0 C0 0.99 0 1.98 0 3 C-0.66 3 -1.32 3 -2 3 C-2 4.65 -2 6.3 -2 8 C-3.98 8 -5.96 8 -8 8 C-7.67 7.34 -7.34 6.68 -7 6 C-6.34 6 -5.68 6 -5 6 C-5 5.34 -5 4.68 -5 4 C-5.66 3.67 -6.32 3.34 -7 3 C-4.69 2.01 -2.38 1.02 0 0 Z " fill="#EBB625" transform="translate(333,76)"/>
<path d="M0 0 C-3.1622274 1.73169596 -6.26742722 2.7128976 -9.75 3.625 C-10.73484375 3.88539062 -11.7196875 4.14578125 -12.734375 4.4140625 C-13.85585937 4.70410156 -13.85585937 4.70410156 -15 5 C-14 2 -14 2 -12 0.8125 C-7.96195446 -0.28113733 -4.15684292 -0.16301345 0 0 Z " fill="#927A3B" transform="translate(164,66)"/>
<path d="M0 0 C1 3 1 3 0.22265625 4.82421875 C-0.8515625 6.54947917 -1.92578125 8.27473958 -3 10 C-6 10 -6 10 -8 9 C-7.50628906 8.51789063 -7.01257813 8.03578125 -6.50390625 7.5390625 C-5.86324219 6.90742188 -5.22257813 6.27578125 -4.5625 5.625 C-3.92441406 4.99851563 -3.28632813 4.37203125 -2.62890625 3.7265625 C-0.92117824 2.08276939 -0.92117824 2.08276939 0 0 Z " fill="#883A3B" transform="translate(206,235)"/>
<path d="M0 0 C0.495 0.185625 0.99 0.37125 1.5 0.5625 C5.15081689 1.20139296 8.33964724 0.54905291 12 0 C12 0.66 12 1.32 12 2 C9.23547967 3.38226016 6.9538637 3.09525387 3.875 3.0625 C2.77929688 3.05347656 1.68359375 3.04445313 0.5546875 3.03515625 C-0.70988281 3.01775391 -0.70988281 3.01775391 -2 3 C-1.34 2.67 -0.68 2.34 0 2 C0 1.34 0 0.68 0 0 Z " fill="#FDB345" transform="translate(239,92)"/>
<path d="M0 0 C5.45479185 0.56820748 9.91059256 1.94637945 15 4 C15 4.33 15 4.66 15 5 C9.17728663 5.59720137 5.0790596 3.528243 0 1 C0 0.67 0 0.34 0 0 Z " fill="#FEAE45" transform="translate(179,51)"/>
<path d="M0 0 C3.79588866 0.54226981 5.47211993 2.20127563 8 5 C5.69 4.67 3.38 4.34 1 4 C1.99 5.485 1.99 5.485 3 7 C1.68 6.34 0.36 5.68 -1 5 C-0.67 3.35 -0.34 1.7 0 0 Z " fill="#8C4F4F" transform="translate(114,330)"/>
<path d="M0 0 C-1.49097658 3.7952131 -3.75700849 5.61042731 -7 8 C-7.25 5.6875 -7.25 5.6875 -7 3 C-4.51960083 0.51960083 -3.55547616 0 0 0 Z " fill="#C1B461" transform="translate(243,267)"/>
<path d="M0 0 C2.625 0.9375 2.625 0.9375 5 2 C3.25 4 3.25 4 1 6 C-0.32 6 -1.64 6 -3 6 C-2.625 3.5625 -2.625 3.5625 -2 1 C-1.34 0.67 -0.68 0.34 0 0 Z " fill="#F65856" transform="translate(131,170)"/>
<path d="M0 0 C-1.485 1.98 -1.485 1.98 -3 4 C-5.31 3.34 -7.62 2.68 -10 2 C-10.33 2.66 -10.66 3.32 -11 4 C-12.65 3.67 -14.3 3.34 -16 3 C-16 2.67 -16 2.34 -16 2 C-10.61972975 0.80911014 -5.54708616 -0.2919519 0 0 Z " fill="#F8CA49" transform="translate(337,73)"/>
<path d="M0 0 C3.375 0.5625 3.375 0.5625 7 2 C8.4375 5.625 8.4375 5.625 9 9 C7.87105124 8.06725891 6.74699124 7.12859878 5.625 6.1875 C4.99851563 5.66542969 4.37203125 5.14335937 3.7265625 4.60546875 C2 3 2 3 0 0 Z " fill="#F6F675" transform="translate(135,285)"/>
<path d="M0 0 C0.33 1.98 0.66 3.96 1 6 C-1.475 7.485 -1.475 7.485 -4 9 C-4 7.35 -4 5.7 -4 4 C-3.34 4 -2.68 4 -2 4 C-2 3.34 -2 2.68 -2 2 C-2.66 1.67 -3.32 1.34 -4 1 C-2 0 -2 0 0 0 Z " fill="#DAD75C" transform="translate(228,278)"/>
<path d="M0 0 C0 3.78374009 -1.10336895 5.74863249 -3 9 C-5.1875 10.875 -5.1875 10.875 -7 12 C-5.63855967 6.80177328 -3.53269829 3.90456127 0 0 Z " fill="#B44D4D" transform="translate(197,245)"/>
<path d="M0 0 C1.32 0.99 2.64 1.98 4 3 C3.67 4.32 3.34 5.64 3 7 C1.68 7 0.36 7 -1 7 C-1.33 6.34 -1.66 5.68 -2 5 C-1.34 4.67 -0.68 4.34 0 4 C0 2.68 0 1.36 0 0 Z " fill="#9F494C" transform="translate(106,321)"/>
<path d="M0 0 C4.13937592 3.30015998 7.58662205 6.17324411 10 11 C6.16853404 9.43903239 3.71851946 7.08588695 1 4 C0.35546875 1.8359375 0.35546875 1.8359375 0 0 Z " fill="#FDD760" transform="translate(177,262)"/>
<path d="M0 0 C2.23960447 2.87949147 4.29864224 5.76742026 6 9 C5.67 9.66 5.34 10.32 5 11 C4.34 11 3.68 11 3 11 C3 10.01 3 9.02 3 8 C2.34 8 1.68 8 1 8 C0.67 5.36 0.34 2.72 0 0 Z " fill="#D2D16F" transform="translate(120,188)"/>
<path d="M0 0 C0.7734375 0.61875 0.7734375 0.61875 1.5625 1.25 C-0.82057475 3.63307475 -2.19154497 3.68195787 -5.4375 4.25 C-6.4275 4.745 -6.4275 4.745 -7.4375 5.25 C-8.0975 4.59 -8.7575 3.93 -9.4375 3.25 C-3.0375 -0.93461538 -3.0375 -0.93461538 0 0 Z " fill="#9D4D4E" transform="translate(135.4375,167.75)"/>
<path d="M0 0 C0 0.66 0 1.32 0 2 C-0.99 2.33 -1.98 2.66 -3 3 C-3.99 4.2684375 -3.99 4.2684375 -5 5.5625 C-5.66 6.366875 -6.32 7.17125 -7 8 C-7.99 8 -8.98 8 -10 8 C-8.89904638 4.69713914 -8.3103981 4.21489099 -5.5625 2.3125 C-4.94503906 1.87550781 -4.32757813 1.43851562 -3.69140625 0.98828125 C-2 0 -2 0 0 0 Z " fill="#F6C022" transform="translate(266,126)"/>
<path d="M0 0 C2.475 0.99 2.475 0.99 5 2 C5 2.66 5 3.32 5 4 C5.99 4 6.98 4 8 4 C9.6875 6 9.6875 6 11 8 C10.67 8.66 10.34 9.32 10 10 C8.33037631 8.52417192 6.6643694 7.04425109 5 5.5625 C4.071875 4.73878906 3.14375 3.91507812 2.1875 3.06640625 C1.465625 2.38449219 0.74375 1.70257813 0 1 C0 0.67 0 0.34 0 0 Z " fill="#F76E41" transform="translate(219,69)"/>
<path d="M0 0 C0.66 0.33 1.32 0.66 2 1 C-1.625 4 -1.625 4 -5 4 C-5 4.66 -5 5.32 -5 6 C-6.98 6 -8.96 6 -11 6 C-7.57874946 3.12614955 -4.16111563 1.54115394 0 0 Z " fill="#9A494C" transform="translate(129,27)"/>
<path d="M0 0 C1.28222189 3.03070628 0.98589446 4.03596914 -0.25 7.1875 C-2 10 -2 10 -5 11 C-3.77472971 6.94718288 -2.30119506 3.55639236 0 0 Z " fill="#763D3E" transform="translate(77,71)"/>
<path d="M0 0 C0.99 0 1.98 0 3 0 C3 0.66 3 1.32 3 2 C1.5390625 3.2890625 1.5390625 3.2890625 -0.375 4.625 C-1.00148437 5.07101563 -1.62796875 5.51703125 -2.2734375 5.9765625 C-4 7 -4 7 -6 7 C-6 6.01 -6 5.02 -6 4 C-5.01 4 -4.02 4 -3 4 C-3 3.34 -3 2.68 -3 2 C-2.01 2 -1.02 2 0 2 C0 1.34 0 0.68 0 0 Z " fill="#997726" transform="translate(236,146)"/>
<path d="M0 0 C1.32 0 2.64 0 4 0 C4.33 1.65 4.66 3.3 5 5 C4.01 5.66 3.02 6.32 2 7 C1.87625 6.360625 1.7525 5.72125 1.625 5.0625 C1.315625 4.0415625 1.315625 4.0415625 1 3 C0.34 2.67 -0.32 2.34 -1 2 C-0.67 1.34 -0.34 0.68 0 0 Z " fill="#E0B53F" transform="translate(311,94)"/>
<path d="M0 0 C-1 2 -1 2 -3.1875 3.125 C-6.26769331 4.08328236 -8.79309948 4.14915816 -12 4 C-7.99899414 0.12023674 -5.51903037 -0.43286513 0 0 Z " fill="#EF605D" transform="translate(146,23)"/>
<path d="M0 0 C1.98 0.495 1.98 0.495 4 1 C4 2.32 4 3.64 4 5 C2.35 5.33 0.7 5.66 -1 6 C-0.67 4.02 -0.34 2.04 0 0 Z " fill="#F16A6A" transform="translate(77,240)"/>
<path d="M0 0 C0.33 1.32 0.66 2.64 1 4 C0.01 4.495 0.01 4.495 -1 5 C-0.67 3.35 -0.34 1.7 0 0 Z M-4 5 C-3.01 5.33 -2.02 5.66 -1 6 C-1.99 7.98 -2.98 9.96 -4 12 C-4.66 12 -5.32 12 -6 12 C-5.34 9.69 -4.68 7.38 -4 5 Z " fill="#E36669" transform="translate(244,181)"/>
<path d="M0 0 C0.66 0.33 1.32 0.66 2 1 C1.01 2.485 1.01 2.485 0 4 C0 4.99 0 5.98 0 7 C0.99 7.66 1.98 8.32 3 9 C1.35 8.67 -0.3 8.34 -2 8 C-2.33 6.02 -2.66 4.04 -3 2 C-2.01 1.34 -1.02 0.68 0 0 Z " fill="#6B3B3C" transform="translate(160,153)"/>
<path d="M0 0 C-0.33 1.32 -0.66 2.64 -1 4 C-2.65 4 -4.3 4 -6 4 C-6 3.01 -6 2.02 -6 1 C-4 0 -4 0 0 0 Z " fill="#FB5552" transform="translate(183,148)"/>
<path d="M0 0 C0 0.66 0 1.32 0 2 C-4.46236469 3.80619523 -7.31034294 4.11658501 -12 3 C-12 2.67 -12 2.34 -12 2 C-10.56342755 1.66269158 -9.12569907 1.33030409 -7.6875 1 C-6.88699219 0.814375 -6.08648437 0.62875 -5.26171875 0.4375 C-3 0 -3 0 0 0 Z " fill="#D0B674" transform="translate(214,99)"/>
<path d="M0 0 C0.33 0.66 0.66 1.32 1 2 C0.34 2 -0.32 2 -1 2 C-1 3.32 -1 4.64 -1 6 C-1.99 6 -2.98 6 -4 6 C-4 6.66 -4 7.32 -4 8 C-4.99 7.67 -5.98 7.34 -7 7 C-5.625 5 -5.625 5 -4 3 C-3.34 3 -2.68 3 -2 3 C-2 2.34 -2 1.68 -2 1 C-1.34 0.67 -0.68 0.34 0 0 Z " fill="#FCC738" transform="translate(324,84)"/>
<path d="M0 0 C2.64 0.33 5.28 0.66 8 1 C8 1.33 8 1.66 8 2 C5.69 2 3.38 2 1 2 C1 2.66 1 3.32 1 4 C1.66 4.33 2.32 4.66 3 5 C1.68 4.67 0.36 4.34 -1 4 C-0.67 2.68 -0.34 1.36 0 0 Z " fill="#884C4C" transform="translate(144,348)"/>
<path d="M0 0 C5.75 0.875 5.75 0.875 8 2 C8 2.66 8 3.32 8 4 C2.25 3.125 2.25 3.125 0 2 C0 1.34 0 0.68 0 0 Z " fill="#BEBD60" transform="translate(155,301)"/>
<path d="M0 0 C0.99 0 1.98 0 3 0 C3.33 0.99 3.66 1.98 4 3 C2.35 4.65 0.7 6.3 -1 8 C-1.125 2.25 -1.125 2.25 0 0 Z " fill="#C0C058" transform="translate(230,275)"/>
<path d="M0 0 C0.99 0.33 1.98 0.66 3 1 C3 1.66 3 2.32 3 3 C4.65 3 6.3 3 8 3 C7.67 4.65 7.34 6.3 7 8 C5.2925002 6.71937515 3.62626404 5.38232443 2 4 C2 3.34 2 2.68 2 2 C1.34 2 0.68 2 0 2 C0 1.34 0 0.68 0 0 Z " fill="#E28450" transform="translate(174,258)"/>
<path d="M0 0 C2.64 1.65 5.28 3.3 8 5 C7.67 5.99 7.34 6.98 7 8 C5.8274869 7.04882866 4.66212985 6.08882991 3.5 5.125 C2.8503125 4.59132812 2.200625 4.05765625 1.53125 3.5078125 C1.0259375 3.01023438 0.520625 2.51265625 0 2 C0 1.34 0 0.68 0 0 Z " fill="#A08F4E" transform="translate(102,249)"/>
<path d="M0 0 C1.32 0 2.64 0 4 0 C4 0.66 4 1.32 4 2 C4.99 2.33 5.98 2.66 7 3 C7.33 3.99 7.66 4.98 8 6 C5.0280615 4.87548273 2.66559313 3.77706209 0 2 C0 1.34 0 0.68 0 0 Z " fill="#F26C3F" transform="translate(208,61)"/>
<path d="M0 0 C2.5 0.3125 2.5 0.3125 5 1 C5.33 1.66 5.66 2.32 6 3 C4.35 3 2.7 3 1 3 C0.67 3.99 0.34 4.98 0 6 C-0.38218767 4.34385343 -0.71395102 2.67542976 -1 1 C-0.67 0.67 -0.34 0.34 0 0 Z " fill="#7F3D3E" transform="translate(90,304)"/>
<path d="M0 0 C3 1 3 1 4.25 3.3125 C5.04631835 6.16597407 4.8214856 7.24802325 4 10 C3.32845067 8.71086513 2.66291141 7.41859796 2 6.125 C1.62875 5.40570313 1.2575 4.68640625 0.875 3.9453125 C0 2 0 2 0 0 Z " fill="#F5CB5F" transform="translate(76,204)"/>
<path d="M0 0 C5.57142857 5.14285714 5.57142857 5.14285714 6 9 C5.01 8.67 4.02 8.34 3 8 C2.67 7.01 2.34 6.02 2 5 C1.34 4.67 0.68 4.34 0 4 C0 2.68 0 1.36 0 0 Z " fill="#E1DB68" transform="translate(114,179)"/>
<path d="M0 0 C0.33 0 0.66 0 1 0 C1 2.64 1 5.28 1 8 C-0.32 8 -1.64 8 -3 8 C-2.690625 7.236875 -2.38125 6.47375 -2.0625 5.6875 C-1.32106407 3.81210323 -0.63771783 1.91315348 0 0 Z " fill="#87403E" transform="translate(69,86)"/>
<path d="M0 0 C0.99 0.33 1.98 0.66 3 1 C2.67 2.98 2.34 4.96 2 7 C1.34 7 0.68 7 0 7 C0 4.69 0 2.38 0 0 Z " fill="#EF5753" transform="translate(77,256)"/>
<path d="M0 0 C0.66 0.99 1.32 1.98 2 3 C1.34 4.32 0.68 5.64 0 7 C-0.66 7 -1.32 7 -2 7 C-2.33 6.01 -2.66 5.02 -3 4 C-1.5625 1.8125 -1.5625 1.8125 0 0 Z " fill="#A9403E" transform="translate(229,205)"/>
<path d="M0 0 C0.33 0.66 0.66 1.32 1 2 C0.06421005 4.35981813 -0.93347808 6.69631264 -2 9 C-2.66 9 -3.32 9 -4 9 C-2.94124926 5.59687262 -1.99097846 2.98646769 0 0 Z " fill="#733C3B" transform="translate(238,189)"/>
<path d="M0 0 C0.33 0 0.66 0 1 0 C1.39253254 4.44870215 0.15305957 7.14243493 -2 11 C-2.33 11 -2.66 11 -3 11 C-3 9.02 -3 7.04 -3 5 C-2.01 4.67 -1.02 4.34 0 4 C0 2.68 0 1.36 0 0 Z " fill="#A57F40" transform="translate(62,112)"/>
<path d="M0 0 C1.32 0 2.64 0 4 0 C3.6875 1.875 3.6875 1.875 3 4 C2.01 4.66 1.02 5.32 0 6 C0 4.02 0 2.04 0 0 Z " fill="#C7AA4E" transform="translate(316,92)"/>
<path d="M0 0 C6.75 1.75 6.75 1.75 9 4 C8.01 4.33 7.02 4.66 6 5 C2.8125 3.125 2.8125 3.125 0 1 C0 0.67 0 0.34 0 0 Z " fill="#F7BB55" transform="translate(218,73)"/>
<path d="M0 0 C1.32 0 2.64 0 4 0 C3.67 1.32 3.34 2.64 3 4 C1.68 4 0.36 4 -1 4 C-0.67 2.68 -0.34 1.36 0 0 Z " fill="#B3898B" transform="translate(290,332)"/>
<path d="M0 0 C0.66 0.33 1.32 0.66 2 1 C2.625 3.5625 2.625 3.5625 3 6 C2.01 6 1.02 6 0 6 C-1.125 2.25 -1.125 2.25 0 0 Z " fill="#E55B57" transform="translate(104,319)"/>
<path d="M0 0 C2.91517292 1.07401108 4.77810176 1.77810176 7 4 C6.01 4.33 5.02 4.66 4 5 C1.3125 3.5625 1.3125 3.5625 -1 2 C-0.67 1.34 -0.34 0.68 0 0 Z " fill="#B0AF57" transform="translate(148,296)"/>
<path d="M0 0 C0 1.98 0 3.96 0 6 C-0.99 6.495 -0.99 6.495 -2 7 C-2 6.01 -2 5.02 -2 4 C-2.99 3.67 -3.98 3.34 -5 3 C-1.125 0 -1.125 0 0 0 Z " fill="#E3C75D" transform="translate(236,270)"/>
<path d="M0 0 C0.66 0 1.32 0 2 0 C0.7508258 3.45925163 -0.67527795 6.14693203 -3 9 C-2.44271087 5.65626525 -1.64826111 2.96687001 0 0 Z " fill="#B96161" transform="translate(275,219)"/>
<path d="M0 0 C0.53625 0.226875 1.0725 0.45375 1.625 0.6875 C-3.79038462 3.76442308 -3.79038462 3.76442308 -6.75 3.375 C-7.554375 3.0346875 -7.554375 3.0346875 -8.375 2.6875 C-2.95961538 -0.38942308 -2.95961538 -0.38942308 0 0 Z " fill="#ECB214" transform="translate(272.375,103.3125)"/>
<path d="M0 0 C0.33 1.32 0.66 2.64 1 4 C0.34 4 -0.32 4 -1 4 C-1.33 5.65 -1.66 7.3 -2 9 C-2.66 9 -3.32 9 -4 9 C-2.94124926 5.59687262 -1.99097846 2.98646769 0 0 Z " fill="#FDB546" transform="translate(70,96)"/>
<path d="M0 0 C3.82097239 0.53069061 6.06171403 1.49701566 9 4 C5.37471432 4.20140476 3.13498292 3.85776765 0 2 C0 1.34 0 0.68 0 0 Z " fill="#BC5B57" transform="translate(231,28)"/>
</svg>
